<svg width="1462.6px" height="122px" xmlns="http://www.w3.org/2000/svg" viewBox="-481.3229736328125 14 1462.645947265625 122" style="background: rgba(0, 0, 0, 0)" preserveAspectRatio="xMidYMid"><defs><linearGradient id="editing-shiny-gradient" x1="0.04322727117869957" x2="0.9567727288213004" y1="0.2966316784620999" y2="0.7033683215379001" gradientUnits="objectBoundingBox"><stop offset="0" stop-color="#ffb200"></stop><stop offset="0.5" stop-color="#e10057"></stop><stop offset="1" stop-color="#5a1a80"></stop></linearGradient><linearGradient id="editing-shiny-gradient2" x1="0" x2="0" y1="0" y2="1"><stop offset="0.2" stop-color="#ffffff" stop-opacity="0.8"></stop><stop offset="0.8" stop-color="#ffffff" stop-opacity="0"></stop></linearGradient><filter id="editing-shiny2" x="-100%" y="-100%" width="300%" height="300%"><feMorphology operator="erode" radius="2"></feMorphology></filter><filter id="editing-shiny" x="-100%" y="-100%" width="300%" height="300%"><feFlood flood-color="#fff" result="flood"></feFlood><feConvolveMatrix in="SourceGraphic" result="conv" order="8,8" divisor="1" kernelMatrix="0 0 0 0 0 0 0 0 0 0 0 1 1 0 0 0 0 0 0 1 1 0 0 0 0 0 1 0 0 1 0 0 0 0 1 0 0 1 0 0 0 1 0 0 0 0 1 0 0 1 1 0 0 1 1 0 0 0 0 1 1 0 0 0 "></feConvolveMatrix><feOffset dx="0" dy="4" in="conv" result="offset"></feOffset><feComposite operator="in" in="flood" in2="offset" result="comp"></feComposite><feGaussianBlur in="offset" stdDeviation="3" result="shadow"></feGaussianBlur><feColorMatrix in="shadow" type="matrix" values="0.7 0 0 0 0  0 0.7 0 0 0  0 0 0.7 0 0  0 0 0 0.3 0" result="dark-shadow"></feColorMatrix><feOffset dx="0" dy="4" in="dark-shadow" result="offset-shadow"></feOffset><feOffset dx="0" dy="2" in="conv" result="offset-2"></feOffset><feComposite operator="out" in="offset" in2="offset-2" result="edge-diff"></feComposite><feGaussianBlur in="edge-diff" stdDeviation="1" result="edge-blur"></feGaussianBlur><feColorMatrix in="edge-blur" result="edge-shadow" type="matrix" values="0 0 0 0 0  0 0 0 0 0  0 0 0 0 0  0 0 0 0.5 0"></feColorMatrix><feComposite operator="in" in="edge-shadow" in2="offset" result="edge-shadow-in"></feComposite><feOffset dx="0" dy="1" in="edge-shadow-in" result="edge-shadow-final"></feOffset><feMerge result="out"><feMergeNode in="offset-shadow"></feMergeNode><feMergeNode in="comp"></feMergeNode><feMergeNode in="edge-shadow-final"></feMergeNode><feMergeNode in="SourceGraphic"></feMergeNode></feMerge></filter></defs><g filter="url(#editing-shiny)"><g transform="matrix(null,null,null,null,null,null)"><path d="M 101.1 -78.8 L 87.1 -78.8 L 95.3 -121 L 109.3 -121 L 101.1 -78.8 Z M 156.8 -77.5 L 156.8 -77.5 L 156.8 -77.5 Q 149.1 -77.5 149.1 -83.5 L 149.1 -83.5 L 149.1 -83.5 Q 149.1 -86.1 150.2 -91.2 L 150.2 -91.2 L 150.2 -91.2 Q 151.3 -96.3 151.7 -98.4 L 151.7 -98.4 L 151.7 -98.4 Q 152.6 -103 152.6 -104.5 L 152.6 -104.5 L 152.6 -104.5 Q 152.6 -107.8 150.2 -107.8 L 150.2 -107.8 L 150.2 -107.8 Q 148.6 -107.8 147 -105.6 L 147 -105.6 L 147 -105.6 Q 145.5 -103.4 144.8 -98.9 L 144.8 -98.9 L 140.8 -78.8 L 128.3 -77.5 L 131.8 -94.9 L 131.8 -94.9 Q 132.4 -97.8 132.9 -101.1 L 132.9 -101.1 L 132.9 -101.1 Q 133.4 -104.3 133.4 -104.8 L 133.4 -104.8 L 133.4 -104.8 Q 133.4 -107.8 131.2 -107.8 L 131.2 -107.8 L 131.2 -107.8 Q 129.8 -107.8 128.2 -105.6 L 128.2 -105.6 L 128.2 -105.6 Q 126.6 -103.4 125.7 -98.9 L 125.7 -98.9 L 121.8 -78.8 L 109.1 -77.5 L 115.9 -111.4 L 126.3 -112.7 L 125.2 -106.2 L 125.2 -106.2 Q 126.9 -109.7 129.9 -111.2 L 129.9 -111.2 L 129.9 -111.2 Q 133 -112.7 137.8 -112.7 L 137.8 -112.7 L 137.8 -112.7 Q 140.6 -112.7 142.4 -111.4 L 142.4 -111.4 L 142.4 -111.4 Q 144.2 -110 144.7 -107.8 L 144.7 -107.8 L 144.7 -107.8 Q 145.8 -110.1 148.6 -111.4 L 148.6 -111.4 L 148.6 -111.4 Q 151.4 -112.7 154.8 -112.7 L 154.8 -112.7 L 154.8 -112.7 Q 158.2 -112.7 159.9 -112 L 159.9 -112 L 159.9 -112 Q 161.6 -111.2 162.6 -110 L 162.6 -110 L 162.6 -110 Q 164.4 -107.8 164.4 -103.7 L 164.4 -103.7 L 164.4 -103.7 Q 164.4 -99.6 162.6 -91.3 L 162.6 -91.3 L 162.6 -91.3 Q 161.8 -87.2 161.8 -85.7 L 161.8 -85.7 L 161.8 -85.7 Q 161.8 -84.2 162.6 -83.3 L 162.6 -83.3 L 162.6 -83.3 Q 163.5 -82.4 164.8 -82.2 L 164.8 -82.2 L 164.8 -82.2 Q 164.1 -80.1 161.9 -78.8 L 161.9 -78.8 L 161.9 -78.8 Q 159.7 -77.5 156.8 -77.5 Z M 172.5 -80.7 L 172.5 -80.7 L 172.5 -80.7 Q 171 -82.4 170.3 -85 L 170.3 -85 L 170.3 -85 Q 169.6 -87.6 169.6 -91.9 L 169.6 -91.9 L 169.6 -91.9 Q 169.6 -96.2 171.1 -100.1 L 171.1 -100.1 L 171.1 -100.1 Q 172.6 -104 175.3 -106.8 L 175.3 -106.8 L 175.3 -106.8 Q 180.8 -112.7 189.8 -112.7 L 189.8 -112.7 L 189.8 -112.7 Q 193.1 -112.7 195.5 -111.6 L 195.5 -111.6 L 206.4 -112.7 L 201.7 -87.7 L 201.7 -87.7 Q 201.5 -87 201.5 -85.6 L 201.5 -85.6 L 201.5 -85.6 Q 201.5 -84.2 202.4 -83.3 L 202.4 -83.3 L 202.4 -83.3 Q 203.2 -82.4 204.5 -82.2 L 204.5 -82.2 L 204.5 -82.2 Q 203.9 -80.1 201.5 -78.8 L 201.5 -78.8 L 201.5 -78.8 Q 199.2 -77.5 196.6 -77.5 L 196.6 -77.5 L 196.6 -77.5 Q 193.9 -77.5 192.2 -78.5 L 192.2 -78.5 L 192.2 -78.5 Q 190.4 -79.5 189.9 -81.2 L 189.9 -81.2 L 189.9 -81.2 Q 188.9 -79.6 186.7 -78.5 L 186.7 -78.5 L 186.7 -78.5 Q 184.5 -77.5 181.6 -77.5 L 181.6 -77.5 L 181.6 -77.5 Q 178.7 -77.5 176.3 -78.3 L 176.3 -78.3 L 176.3 -78.3 Q 174 -79 172.5 -80.7 Z M 186 -106.7 L 186 -106.7 L 186 -106.7 Q 185.2 -105.5 184.6 -103.6 L 184.6 -103.6 L 184.6 -103.6 Q 184 -101.6 182.9 -96.4 L 182.9 -96.4 L 182.9 -96.4 Q 181.8 -91.2 181.8 -87.5 L 181.8 -87.5 L 181.8 -87.5 Q 181.8 -83.8 182.4 -82.7 L 182.4 -82.7 L 182.4 -82.7 Q 183 -81.6 184 -81.6 L 184 -81.6 L 184 -81.6 Q 186.1 -81.6 187.6 -83.6 L 187.6 -83.6 L 187.6 -83.6 Q 189.1 -85.5 189.7 -89 L 189.7 -89 L 193 -107.7 L 193 -107.7 Q 191.7 -108.9 190.1 -108.9 L 190.1 -108.9 L 190.1 -108.9 Q 188.6 -108.9 187.6 -108.4 L 187.6 -108.4 L 187.6 -108.4 Q 186.7 -107.8 186 -106.7 Z M 214.2 -105.5 L 214.2 -105.5 L 214.2 -105.5 Q 216.3 -108.6 219.6 -110.7 L 219.6 -110.7 L 219.6 -110.7 Q 222.9 -112.7 227 -112.7 L 227 -112.7 L 227 -112.7 Q 231 -112.7 232.9 -111.4 L 232.9 -111.4 L 245.5 -112.7 L 241.1 -88.1 L 241.1 -88.1 Q 238.9 -75.6 234.1 -70.7 L 234.1 -70.7 L 234.1 -70.7 Q 229.6 -66 220.8 -66 L 220.8 -66 L 220.8 -66 Q 214 -66 210.2 -68.1 L 210.2 -68.1 L 210.2 -68.1 Q 206.4 -70.2 206.4 -73.7 L 206.4 -73.7 L 206.4 -73.7 Q 206.4 -76.4 208.3 -77.9 L 208.3 -77.9 L 208.3 -77.9 Q 210.3 -79.4 213.4 -79.4 L 213.4 -79.4 L 213.4 -79.4 Q 216.1 -79.4 218.1 -78.1 L 218.1 -78.1 L 218.1 -78.1 Q 219.4 -77.5 219.9 -76.6 L 219.9 -76.6 L 219.9 -76.6 Q 218.5 -75.3 218.5 -73.2 L 218.5 -73.2 L 218.5 -73.2 Q 218.5 -70.5 221 -70.5 L 221 -70.5 L 221 -70.5 Q 225.3 -70.5 227.7 -80.6 L 227.7 -80.6 L 227.7 -80.6 Q 228.4 -83.3 229 -86.1 L 229 -86.1 L 229 -86.1 Q 226.1 -82.6 219.6 -82.6 L 219.6 -82.6 L 219.6 -82.6 Q 215.1 -82.6 212.4 -84.7 L 212.4 -84.7 L 212.4 -84.7 Q 209.8 -86.9 209.8 -92 L 209.8 -92 L 209.8 -92 Q 209.8 -95.2 210.9 -98.8 L 210.9 -98.8 L 210.9 -98.8 Q 212 -102.5 214.2 -105.5 Z M 222.5 -91.8 L 222.5 -91.8 L 222.5 -91.8 Q 222.5 -87.5 224.7 -87.5 L 224.7 -87.5 L 224.7 -87.5 Q 226.3 -87.5 227.7 -89.2 L 227.7 -89.2 L 227.7 -89.2 Q 228.9 -90.5 229.3 -92.5 L 229.3 -92.5 L 232.6 -108.9 L 232.6 -108.9 Q 232.3 -109 232 -109.1 L 232 -109.1 L 232 -109.1 Q 231.3 -109.4 230.5 -109.4 L 230.5 -109.4 L 230.5 -109.4 Q 226.6 -109.4 224.3 -103 L 224.3 -103 L 224.3 -103 Q 222.5 -98 222.5 -91.8 Z M 273.9 -89.6 L 273.9 -89.6 L 273.9 -89.6 Q 275.5 -88.5 275.5 -86.1 L 275.5 -86.1 L 275.5 -86.1 Q 275.5 -83.7 274.3 -82.2 L 274.3 -82.2 L 274.3 -82.2 Q 273 -80.6 271.1 -79.6 L 271.1 -79.6 L 271.1 -79.6 Q 267 -77.5 262.6 -77.5 L 262.6 -77.5 L 262.6 -77.5 Q 258.1 -77.5 255.5 -78.5 L 255.5 -78.5 L 255.5 -78.5 Q 253 -79.4 251.2 -81.2 L 251.2 -81.2 L 251.2 -81.2 Q 247.8 -84.6 247.8 -90.8 L 247.8 -90.8 L 247.8 -90.8 Q 247.8 -100.5 253.1 -106.4 L 253.1 -106.4 L 253.1 -106.4 Q 258.7 -112.7 268.5 -112.7 L 268.5 -112.7 L 268.5 -112.7 Q 274.6 -112.7 277.6 -110.1 L 277.6 -110.1 L 277.6 -110.1 Q 279.8 -108.2 279.8 -105.1 L 279.8 -105.1 L 279.8 -105.1 Q 279.8 -93.8 260.4 -93.8 L 260.4 -93.8 L 260.4 -93.8 Q 260.1 -92.2 260.1 -90.8 L 260.1 -90.8 L 260.1 -90.8 Q 260.1 -87.8 261.4 -86.7 L 261.4 -86.7 L 261.4 -86.7 Q 262.7 -85.6 265.2 -85.6 L 265.2 -85.6 L 265.2 -85.6 Q 267.6 -85.6 270.2 -86.7 L 270.2 -86.7 L 270.2 -86.7 Q 272.8 -87.8 273.9 -89.6 Z M 260.8 -96.6 L 260.8 -96.6 L 260.8 -96.6 Q 265.4 -96.6 268 -99.4 L 268 -99.4 L 268 -99.4 Q 270.6 -102.1 270.6 -106.4 L 270.6 -106.4 L 270.6 -106.4 Q 270.6 -107.8 270.1 -108.6 L 270.1 -108.6 L 270.1 -108.6 Q 269.5 -109.4 268.4 -109.4 L 268.4 -109.4 L 268.4 -109.4 Q 267.4 -109.4 266.4 -109 L 266.4 -109 L 266.4 -109 Q 265.5 -108.6 264.5 -107.2 L 264.5 -107.2 L 264.5 -107.2 Q 262.2 -104 260.8 -96.6 Z M 301.1 -101.2 L 301.1 -101.2 L 301.1 -101.2 Q 302 -103.6 302 -105.7 L 302 -105.7 L 302 -105.7 Q 302 -109.4 299 -109.4 L 299 -109.4 L 299 -109.4 Q 297.4 -109.4 296.1 -108 L 296.1 -108 L 296.1 -108 Q 294.7 -106.6 294.7 -104.8 L 294.7 -104.8 L 294.7 -104.8 Q 294.7 -103.5 295.8 -102.5 L 295.8 -102.5 L 295.8 -102.5 Q 297.2 -101.1 301 -98.8 L 301 -98.8 L 301 -98.8 Q 304.8 -96.4 306.2 -94.6 L 306.2 -94.6 L 306.2 -94.6 Q 307.7 -92.7 307.7 -90.1 L 307.7 -90.1 L 307.7 -90.1 Q 307.7 -87.5 306.4 -85.1 L 306.4 -85.1 L 306.4 -85.1 Q 305.2 -82.8 302.9 -81.1 L 302.9 -81.1 L 302.9 -81.1 Q 298.1 -77.5 290.5 -77.5 L 290.5 -77.5 L 290.5 -77.5 Q 286.3 -77.5 283.1 -79.7 L 283.1 -79.7 L 283.1 -79.7 Q 279.9 -81.8 279.9 -84.3 L 279.9 -84.3 L 279.9 -84.3 Q 279.9 -86.8 281.7 -88.3 L 281.7 -88.3 L 281.7 -88.3 Q 283.5 -89.7 286.2 -89.7 L 286.2 -89.7 L 286.2 -89.7 Q 288.9 -89.7 290.6 -88.7 L 290.6 -88.7 L 290.6 -88.7 Q 289.8 -86.6 289.8 -85.2 L 289.8 -85.2 L 289.8 -85.2 Q 289.8 -81 293.3 -81 L 293.3 -81 L 293.3 -81 Q 294.9 -81 295.9 -81.9 L 295.9 -81.9 L 295.9 -81.9 Q 296.9 -82.9 296.9 -84.5 L 296.9 -84.5 L 296.9 -84.5 Q 296.9 -87.8 291.4 -91.3 L 291.4 -91.3 L 291.4 -91.3 Q 286.9 -94.2 285.9 -95.4 L 285.9 -95.4 L 285.9 -95.4 Q 284.2 -97.4 284.2 -100 L 284.2 -100 L 284.2 -100 Q 284.2 -102.5 285.4 -105 L 285.4 -105 L 285.4 -105 Q 286.6 -107.4 288.9 -109.1 L 288.9 -109.1 L 288.9 -109.1 Q 293.5 -112.7 301.7 -112.7 L 301.7 -112.7 L 301.7 -112.7 Q 305.8 -112.7 308.3 -111 L 308.3 -111 L 308.3 -111 Q 310.7 -109.4 310.7 -106.6 L 310.7 -106.6 L 310.7 -106.6 Q 310.7 -103.7 309 -102.1 L 309 -102.1 L 309 -102.1 Q 307.4 -100.5 304.3 -100.5 L 304.3 -100.5 L 304.3 -100.5 Q 302.2 -100.5 301.1 -101.2 Z M 352.2 -99.4 L 365.1 -100.5 L 365.1 -100.5 Q 360.5 -90.4 360.5 -78.7 L 360.5 -78.7 L 360.5 -78.7 Q 358.8 -77.5 356.3 -77.5 L 356.3 -77.5 L 356.3 -77.5 Q 353.8 -77.5 352.2 -78.7 L 352.2 -78.7 L 352.2 -78.7 Q 350.6 -79.9 350.2 -81.1 L 350.2 -81.1 L 350.2 -81.1 Q 348.6 -79.4 346 -78.5 L 346 -78.5 L 346 -78.5 Q 343.4 -77.5 340.7 -77.5 L 340.7 -77.5 L 340.7 -77.5 Q 337.9 -77.5 335.5 -78.4 L 335.5 -78.4 L 335.5 -78.4 Q 333.1 -79.3 331.3 -81.3 L 331.3 -81.3 L 331.3 -81.3 Q 327.2 -85.6 327.2 -93.9 L 327.2 -93.9 L 327.2 -93.9 Q 327.2 -106.7 334 -114.4 L 334 -114.4 L 334 -114.4 Q 341.1 -122.3 353.6 -122.3 L 353.6 -122.3 L 353.6 -122.3 Q 362.2 -122.3 365.3 -117.8 L 365.3 -117.8 L 365.3 -117.8 Q 366.2 -116.4 366.2 -114.7 L 366.2 -114.7 L 366.2 -114.7 Q 366.2 -113 365.5 -111.6 L 365.5 -111.6 L 365.5 -111.6 Q 364.8 -110.1 363.6 -109 L 363.6 -109 L 363.6 -109 Q 360.9 -106.4 357.5 -106.4 L 357.5 -106.4 L 357.5 -106.4 Q 356.1 -106.4 354.8 -106.9 L 354.8 -106.9 L 354.8 -106.9 Q 355.1 -108.8 355.1 -111 L 355.1 -111 L 355.1 -111 Q 355.1 -113.3 354.9 -114.3 L 354.9 -114.3 L 354.9 -114.3 Q 354.8 -115.3 354.4 -116.2 L 354.4 -116.2 L 354.4 -116.2 Q 353.6 -117.9 351.7 -117.9 L 351.7 -117.9 L 351.7 -117.9 Q 349.9 -117.9 347.9 -115.9 L 347.9 -115.9 L 347.9 -115.9 Q 345.9 -114 344.3 -110.8 L 344.3 -110.8 L 344.3 -110.8 Q 340.8 -103.6 340.8 -95 L 340.8 -95 L 340.8 -95 Q 340.8 -91 342.3 -88.2 L 342.3 -88.2 L 342.3 -88.2 Q 344 -85.1 346.9 -85.1 L 346.9 -85.1 L 346.9 -85.1 Q 347.9 -85.1 348.9 -85.6 L 348.9 -85.6 L 348.9 -85.6 Q 349.8 -86.1 350.2 -86.5 L 350.2 -86.5 L 352.2 -99.4 Z M 371.1 -80.7 L 371.1 -80.7 L 371.1 -80.7 Q 369.6 -82.4 368.9 -85 L 368.9 -85 L 368.9 -85 Q 368.2 -87.6 368.2 -91.9 L 368.2 -91.9 L 368.2 -91.9 Q 368.2 -96.2 369.7 -100.1 L 369.7 -100.1 L 369.7 -100.1 Q 371.2 -104 373.8 -106.8 L 373.8 -106.8 L 373.8 -106.8 Q 379.4 -112.7 388.4 -112.7 L 388.4 -112.7 L 388.4 -112.7 Q 391.7 -112.7 394.1 -111.6 L 394.1 -111.6 L 405 -112.7 L 400.3 -87.7 L 400.3 -87.7 Q 400.1 -87 400.1 -85.6 L 400.1 -85.6 L 400.1 -85.6 Q 400.1 -84.2 401 -83.3 L 401 -83.3 L 401 -83.3 Q 401.8 -82.4 403.1 -82.2 L 403.1 -82.2 L 403.1 -82.2 Q 402.5 -80.1 400.1 -78.8 L 400.1 -78.8 L 400.1 -78.8 Q 397.8 -77.5 395.2 -77.5 L 395.2 -77.5 L 395.2 -77.5 Q 392.5 -77.5 390.8 -78.5 L 390.8 -78.5 L 390.8 -78.5 Q 389 -79.5 388.5 -81.2 L 388.5 -81.2 L 388.5 -81.2 Q 387.5 -79.6 385.3 -78.5 L 385.3 -78.5 L 385.3 -78.5 Q 383.1 -77.5 380.2 -77.5 L 380.2 -77.5 L 380.2 -77.5 Q 377.3 -77.5 374.9 -78.3 L 374.9 -78.3 L 374.9 -78.3 Q 372.6 -79 371.1 -80.7 Z M 384.6 -106.7 L 384.6 -106.7 L 384.6 -106.7 Q 383.8 -105.5 383.2 -103.6 L 383.2 -103.6 L 383.2 -103.6 Q 382.6 -101.6 381.5 -96.4 L 381.5 -96.4 L 381.5 -96.4 Q 380.4 -91.2 380.4 -87.5 L 380.4 -87.5 L 380.4 -87.5 Q 380.4 -83.8 381 -82.7 L 381 -82.7 L 381 -82.7 Q 381.6 -81.6 382.6 -81.6 L 382.6 -81.6 L 382.6 -81.6 Q 384.7 -81.6 386.2 -83.6 L 386.2 -83.6 L 386.2 -83.6 Q 387.7 -85.5 388.2 -89 L 388.2 -89 L 391.6 -107.7 L 391.6 -107.7 Q 390.3 -108.9 388.7 -108.9 L 388.7 -108.9 L 388.7 -108.9 Q 387.2 -108.9 386.2 -108.4 L 386.2 -108.4 L 386.2 -108.4 Q 385.3 -107.8 384.6 -106.7 Z M 423.8 -82.3 L 423.8 -82.3 L 423.8 -82.3 Q 421.8 -77.5 415.4 -77.5 L 415.4 -77.5 L 415.4 -77.5 Q 412.2 -77.5 410.2 -79.7 L 410.2 -79.7 L 410.2 -79.7 Q 408.5 -81.6 408.5 -83.7 L 408.5 -83.7 L 408.5 -83.7 Q 408.5 -88.5 410.8 -99 L 410.8 -99 L 415.4 -123.6 L 428.4 -124.9 L 422.2 -92.5 L 422.2 -92.5 Q 421.1 -87.7 421.1 -86.1 L 421.1 -86.1 L 421.1 -86.1 Q 421.1 -82.4 423.8 -82.3 Z M 444.5 -82.3 L 444.5 -82.3 L 444.5 -82.3 Q 442.5 -77.5 436.2 -77.5 L 436.2 -77.5 L 436.2 -77.5 Q 433 -77.5 430.9 -79.7 L 430.9 -79.7 L 430.9 -79.7 Q 429.3 -81.6 429.3 -83.7 L 429.3 -83.7 L 429.3 -83.7 Q 429.3 -88.5 431.5 -99 L 431.5 -99 L 436.2 -123.6 L 449.2 -124.9 L 443 -92.5 L 443 -92.5 Q 441.9 -87.7 441.9 -86.1 L 441.9 -86.1 L 441.9 -86.1 Q 441.9 -82.4 444.5 -82.3 Z M 475.9 -89.6 L 475.9 -89.6 L 475.9 -89.6 Q 477.5 -88.5 477.5 -86.1 L 477.5 -86.1 L 477.5 -86.1 Q 477.5 -83.7 476.2 -82.2 L 476.2 -82.2 L 476.2 -82.2 Q 475 -80.6 473 -79.6 L 473 -79.6 L 473 -79.6 Q 469 -77.5 464.5 -77.5 L 464.5 -77.5 L 464.5 -77.5 Q 460.1 -77.5 457.5 -78.5 L 457.5 -78.5 L 457.5 -78.5 Q 454.9 -79.4 453.2 -81.2 L 453.2 -81.2 L 453.2 -81.2 Q 449.8 -84.6 449.8 -90.8 L 449.8 -90.8 L 449.8 -90.8 Q 449.8 -100.5 455.1 -106.4 L 455.1 -106.4 L 455.1 -106.4 Q 460.7 -112.7 470.5 -112.7 L 470.5 -112.7 L 470.5 -112.7 Q 476.6 -112.7 479.6 -110.1 L 479.6 -110.1 L 479.6 -110.1 Q 481.8 -108.2 481.8 -105.1 L 481.8 -105.1 L 481.8 -105.1 Q 481.8 -93.8 462.4 -93.8 L 462.4 -93.8 L 462.4 -93.8 Q 462.1 -92.2 462.1 -90.8 L 462.1 -90.8 L 462.1 -90.8 Q 462.1 -87.8 463.4 -86.7 L 463.4 -86.7 L 463.4 -86.7 Q 464.7 -85.6 467.2 -85.6 L 467.2 -85.6 L 467.2 -85.6 Q 469.6 -85.6 472.2 -86.7 L 472.2 -86.7 L 472.2 -86.7 Q 474.8 -87.8 475.9 -89.6 Z M 462.8 -96.6 L 462.8 -96.6 L 462.8 -96.6 Q 467.4 -96.6 470 -99.4 L 470 -99.4 L 470 -99.4 Q 472.6 -102.1 472.6 -106.4 L 472.6 -106.4 L 472.6 -106.4 Q 472.6 -107.8 472.1 -108.6 L 472.1 -108.6 L 472.1 -108.6 Q 471.5 -109.4 470.4 -109.4 L 470.4 -109.4 L 470.4 -109.4 Q 469.3 -109.4 468.4 -109 L 468.4 -109 L 468.4 -109 Q 467.5 -108.6 466.5 -107.2 L 466.5 -107.2 L 466.5 -107.2 Q 464.2 -104 462.8 -96.6 Z M 504 -96.8 L 504 -96.8 L 504 -96.8 Q 506.3 -100.9 506.3 -105 L 506.3 -105 L 506.3 -105 Q 506.3 -107.8 504.3 -107.8 L 504.3 -107.8 L 504.3 -107.8 Q 502.8 -107.8 501.2 -105.2 L 501.2 -105.2 L 501.2 -105.2 Q 499.5 -102.5 499 -99.1 L 499 -99.1 L 495.7 -78.8 L 482.5 -77.5 L 489 -111.4 L 499.5 -112.7 L 498.4 -106.2 L 498.4 -106.2 Q 501.5 -112.7 508.6 -112.7 L 508.6 -112.7 L 508.6 -112.7 Q 512.3 -112.7 514.3 -110.8 L 514.3 -110.8 L 514.3 -110.8 Q 516.3 -108.9 516.3 -104.9 L 516.3 -104.9 L 516.3 -104.9 Q 516.3 -101 513.7 -98.5 L 513.7 -98.5 L 513.7 -98.5 Q 511.1 -96 506.7 -96 L 506.7 -96 L 506.7 -96 Q 504.8 -96 504 -96.8 Z M 537.7 -86 L 537.7 -86 L 537.7 -86 Q 534.4 -82.6 528.3 -82.6 L 528.3 -82.6 L 528.3 -82.6 Q 520.7 -82.6 519.1 -88.1 L 519.1 -88.1 L 519.1 -88.1 Q 518.6 -89.8 518.6 -91.6 L 518.6 -91.6 L 518.6 -91.6 Q 518.6 -93.5 518.9 -95.4 L 518.9 -95.4 L 521.9 -111.4 L 534.9 -112.7 L 531.4 -94.1 L 531.4 -94.1 Q 531.3 -93.2 531.1 -92.4 L 531.1 -92.4 L 531.1 -92.4 Q 530.9 -91.5 530.9 -90.5 L 530.9 -90.5 L 530.9 -90.5 Q 530.9 -89.6 531.2 -89 L 531.2 -89 L 531.2 -89 Q 531.5 -88.4 532 -88 L 532 -88 L 532 -88 Q 532.8 -87.5 534.1 -87.5 L 534.1 -87.5 L 534.1 -87.5 Q 535.5 -87.5 536.7 -89.2 L 536.7 -89.2 L 536.7 -89.2 Q 537.9 -90.8 538.5 -93.7 L 538.5 -93.7 L 542 -111.4 L 554.6 -112.7 L 549.8 -87.6 L 549.8 -87.6 Q 547.4 -75.3 542.6 -70.4 L 542.6 -70.4 L 542.6 -70.4 Q 540.1 -67.9 536.8 -66.9 L 536.8 -66.9 L 536.8 -66.9 Q 533.6 -65.9 529.4 -65.9 L 529.4 -65.9 L 529.4 -65.9 Q 522.7 -65.9 518.9 -68 L 518.9 -68 L 518.9 -68 Q 515 -70.1 515 -73.7 L 515 -73.7 L 515 -73.7 Q 515 -76.3 517 -77.8 L 517 -77.8 L 517 -77.8 Q 519 -79.3 522.1 -79.3 L 522.1 -79.3 L 522.1 -79.3 Q 524.8 -79.3 526.8 -78.1 L 526.8 -78.1 L 526.8 -78.1 Q 528 -77.4 528.6 -76.5 L 528.6 -76.5 L 528.6 -76.5 Q 527.1 -75.3 527.1 -73.2 L 527.1 -73.2 L 527.1 -73.2 Q 527.1 -70.3 529.7 -70.3 L 529.7 -70.3 L 529.7 -70.3 Q 533.9 -70.3 536.3 -80.1 L 536.3 -80.1 L 536.3 -80.1 Q 537 -82.9 537.7 -86 Z M 599.2 -112.7 L 599.2 -112.7 L 599.2 -112.7 Q 594 -112.7 590.2 -114.4 L 590.2 -114.4 L 588.2 -104.1 L 600.5 -104.1 L 600.5 -104.1 Q 600.5 -100.7 598.8 -98.5 L 598.8 -98.5 L 598.8 -98.5 Q 597.1 -96.4 594.1 -96.4 L 594.1 -96.4 L 594.1 -96.4 Q 590.7 -96.4 587.7 -97.6 L 587.7 -97.6 L 587.7 -97.6 Q 587 -97.9 587 -97.9 L 587 -97.9 L 583.3 -78.8 L 569.4 -78.8 L 577.5 -121 L 606 -121 L 606 -121 Q 606 -117.1 604.2 -114.9 L 604.2 -114.9 L 604.2 -114.9 Q 602.4 -112.7 599.2 -112.7 Z M 624 -96.8 L 624 -96.8 L 624 -96.8 Q 626.3 -100.9 626.3 -105 L 626.3 -105 L 626.3 -105 Q 626.3 -107.8 624.3 -107.8 L 624.3 -107.8 L 624.3 -107.8 Q 622.7 -107.8 621.1 -105.2 L 621.1 -105.2 L 621.1 -105.2 Q 619.5 -102.5 619 -99.1 L 619 -99.1 L 615.6 -78.8 L 602.4 -77.5 L 608.9 -111.4 L 619.5 -112.7 L 618.3 -106.2 L 618.3 -106.2 Q 621.5 -112.7 628.5 -112.7 L 628.5 -112.7 L 628.5 -112.7 Q 632.2 -112.7 634.2 -110.8 L 634.2 -110.8 L 634.2 -110.8 Q 636.2 -108.9 636.2 -104.9 L 636.2 -104.9 L 636.2 -104.9 Q 636.2 -101 633.7 -98.5 L 633.7 -98.5 L 633.7 -98.5 Q 631.1 -96 626.6 -96 L 626.6 -96 L 626.6 -96 Q 624.7 -96 624 -96.8 Z M 651.2 -77.5 L 651.2 -77.5 L 651.2 -77.5 Q 637.1 -77.5 637.1 -90.8 L 637.1 -90.8 L 637.1 -90.8 Q 637.1 -100.2 642.3 -106.2 L 642.3 -106.2 L 642.3 -106.2 Q 647.8 -112.7 657.4 -112.7 L 657.4 -112.7 L 657.4 -112.7 Q 664.3 -112.7 667.8 -109.5 L 667.8 -109.5 L 667.8 -109.5 Q 671.3 -106.3 671.3 -99.6 L 671.3 -99.6 L 671.3 -99.6 Q 671.3 -89.3 665.8 -83.4 L 665.8 -83.4 L 665.8 -83.4 Q 660.4 -77.5 651.2 -77.5 Z M 652.9 -105.3 L 652.9 -105.3 L 652.9 -105.3 Q 652.1 -103.6 651.5 -101 L 651.5 -101 L 651.5 -101 Q 650.9 -98.4 650.1 -94.3 L 650.1 -94.3 L 650.1 -94.3 Q 649.4 -90.2 649.4 -85.2 L 649.4 -85.2 L 649.4 -85.2 Q 649.4 -83.5 649.9 -82.4 L 649.9 -82.4 L 649.9 -82.4 Q 650.5 -81.3 651.9 -81.3 L 651.9 -81.3 L 651.9 -81.3 Q 653.4 -81.3 654.3 -82 L 654.3 -82 L 654.3 -82 Q 655.3 -82.8 656 -84.4 L 656 -84.4 L 656 -84.4 Q 657.2 -87.4 658.3 -92.8 L 658.3 -92.8 L 658.3 -92.8 Q 659.3 -98.3 659.4 -100.7 L 659.4 -100.7 L 659.4 -100.7 Q 659.5 -103 659.5 -104.8 L 659.5 -104.8 L 659.5 -104.8 Q 659.5 -106.6 659 -107.7 L 659 -107.7 L 659 -107.7 Q 658.5 -108.9 657 -108.9 L 657 -108.9 L 657 -108.9 Q 655.6 -108.9 654.6 -108 L 654.6 -108 L 654.6 -108 Q 653.7 -107.1 652.9 -105.3 Z M 721.2 -77.5 L 721.2 -77.5 L 721.2 -77.5 Q 713.4 -77.5 713.4 -83.5 L 713.4 -83.5 L 713.4 -83.5 Q 713.4 -86.1 714.6 -91.2 L 714.6 -91.2 L 714.6 -91.2 Q 715.7 -96.3 716.1 -98.4 L 716.1 -98.4 L 716.1 -98.4 Q 717 -103 717 -104.5 L 717 -104.5 L 717 -104.5 Q 717 -107.8 714.5 -107.8 L 714.5 -107.8 L 714.5 -107.8 Q 712.9 -107.8 711.4 -105.6 L 711.4 -105.6 L 711.4 -105.6 Q 709.8 -103.4 709.1 -98.9 L 709.1 -98.9 L 705.2 -78.8 L 692.7 -77.5 L 696.2 -94.9 L 696.2 -94.9 Q 696.7 -97.8 697.2 -101.1 L 697.2 -101.1 L 697.2 -101.1 Q 697.8 -104.3 697.8 -104.8 L 697.8 -104.8 L 697.8 -104.8 Q 697.8 -107.8 695.6 -107.8 L 695.6 -107.8 L 695.6 -107.8 Q 694.1 -107.8 692.5 -105.6 L 692.5 -105.6 L 692.5 -105.6 Q 690.9 -103.4 690 -98.9 L 690 -98.9 L 686.1 -78.8 L 673.5 -77.5 L 680.2 -111.4 L 690.6 -112.7 L 689.6 -106.2 L 689.6 -106.2 Q 691.2 -109.7 694.3 -111.2 L 694.3 -111.2 L 694.3 -111.2 Q 697.4 -112.7 702.2 -112.7 L 702.2 -112.7 L 702.2 -112.7 Q 704.9 -112.7 706.7 -111.4 L 706.7 -111.4 L 706.7 -111.4 Q 708.5 -110 709.1 -107.8 L 709.1 -107.8 L 709.1 -107.8 Q 710.2 -110.1 713 -111.4 L 713 -111.4 L 713 -111.4 Q 715.7 -112.7 719.2 -112.7 L 719.2 -112.7 L 719.2 -112.7 Q 722.6 -112.7 724.3 -112 L 724.3 -112 L 724.3 -112 Q 726 -111.2 727 -110 L 727 -110 L 727 -110 Q 728.7 -107.8 728.7 -103.7 L 728.7 -103.7 L 728.7 -103.7 Q 728.7 -99.6 727 -91.3 L 727 -91.3 L 727 -91.3 Q 726.1 -87.2 726.1 -85.7 L 726.1 -85.7 L 726.1 -85.7 Q 726.1 -84.2 727 -83.3 L 727 -83.3 L 727 -83.3 Q 727.8 -82.4 729.1 -82.2 L 729.1 -82.2 L 729.1 -82.2 Q 728.5 -80.1 726.3 -78.8 L 726.3 -78.8 L 726.3 -78.8 Q 724.1 -77.5 721.2 -77.5 Z M 748.4 -88.3 L 748.4 -88.3 L 748.4 -88.3 Q 748.4 -90.8 749.1 -94 L 749.1 -94 L 754.3 -121 L 768.4 -121 L 763.3 -93.8 L 763.3 -93.8 Q 762.7 -90.8 762.7 -88.5 L 762.7 -88.5 L 762.7 -88.5 Q 762.7 -86.3 763.6 -85.2 L 763.6 -85.2 L 763.6 -85.2 Q 764.6 -84 766.3 -84 L 766.3 -84 L 766.3 -84 Q 768 -84 769.1 -84.5 L 769.1 -84.5 L 769.1 -84.5 Q 770.2 -84.9 771.1 -86 L 771.1 -86 L 771.1 -86 Q 772.8 -88.2 773.9 -93.8 L 773.9 -93.8 L 779.1 -121 L 788.8 -121 L 783.6 -93.8 L 783.6 -93.8 Q 781.8 -84.7 776.9 -81.1 L 776.9 -81.1 L 776.9 -81.1 Q 772.1 -77.5 762.6 -77.5 L 762.6 -77.5 L 762.6 -77.5 Q 755.5 -77.5 751.8 -80.6 L 751.8 -80.6 L 751.8 -80.6 Q 748.4 -83.3 748.4 -88.3 Z M 817.1 -77.5 L 817.1 -77.5 L 817.1 -77.5 Q 809.4 -77.5 809.4 -83.5 L 809.4 -83.5 L 809.4 -83.5 Q 809.4 -85.2 809.9 -88 L 809.9 -88 L 811.1 -93.9 L 811.1 -93.9 Q 812.8 -102.2 812.8 -104.1 L 812.8 -104.1 L 812.8 -104.1 Q 812.8 -107.8 810.6 -107.8 L 810.6 -107.8 L 810.6 -107.8 Q 807 -107.8 805.1 -98.2 L 805.1 -98.2 L 801.3 -78.8 L 788.4 -77.5 L 795.1 -111.5 L 805.6 -112.7 L 804.6 -106.4 L 804.6 -106.4 Q 807.6 -112.7 816.8 -112.7 L 816.8 -112.7 L 816.8 -112.7 Q 821.3 -112.7 823.2 -110.8 L 823.2 -110.8 L 823.2 -110.8 Q 825 -108.9 825 -104.7 L 825 -104.7 L 825 -104.7 Q 825 -100.7 823 -91.5 L 823 -91.5 L 823 -91.5 Q 822 -87.3 822 -85.7 L 822 -85.7 L 822 -85.7 Q 822 -84.2 822.9 -83.3 L 822.9 -83.3 L 822.9 -83.3 Q 823.8 -82.4 825 -82.2 L 825 -82.2 L 825 -82.2 Q 824.4 -80.1 822.2 -78.8 L 822.2 -78.8 L 822.2 -78.8 Q 820 -77.5 817.1 -77.5 Z M 849.3 -101.2 L 849.3 -101.2 L 849.3 -101.2 Q 850.2 -103.6 850.2 -105.7 L 850.2 -105.7 L 850.2 -105.7 Q 850.2 -109.4 847.1 -109.4 L 847.1 -109.4 L 847.1 -109.4 Q 845.5 -109.4 844.2 -108 L 844.2 -108 L 844.2 -108 Q 842.9 -106.6 842.9 -104.8 L 842.9 -104.8 L 842.9 -104.8 Q 842.9 -103.5 843.9 -102.5 L 843.9 -102.5 L 843.9 -102.5 Q 845.4 -101.1 849.2 -98.8 L 849.2 -98.8 L 849.2 -98.8 Q 853 -96.4 854.4 -94.6 L 854.4 -94.6 L 854.4 -94.6 Q 855.8 -92.7 855.8 -90.1 L 855.8 -90.1 L 855.8 -90.1 Q 855.8 -87.5 854.6 -85.1 L 854.6 -85.1 L 854.6 -85.1 Q 853.3 -82.8 851.1 -81.1 L 851.1 -81.1 L 851.1 -81.1 Q 846.3 -77.5 838.6 -77.5 L 838.6 -77.5 L 838.6 -77.5 Q 834.5 -77.5 831.3 -79.7 L 831.3 -79.7 L 831.3 -79.7 Q 828.1 -81.8 828.1 -84.3 L 828.1 -84.3 L 828.1 -84.3 Q 828.1 -86.8 829.9 -88.3 L 829.9 -88.3 L 829.9 -88.3 Q 831.7 -89.7 834.4 -89.7 L 834.4 -89.7 L 834.4 -89.7 Q 837.1 -89.7 838.7 -88.7 L 838.7 -88.7 L 838.7 -88.7 Q 837.9 -86.6 837.9 -85.2 L 837.9 -85.2 L 837.9 -85.2 Q 837.9 -81 841.5 -81 L 841.5 -81 L 841.5 -81 Q 843 -81 844.1 -81.9 L 844.1 -81.9 L 844.1 -81.9 Q 845.1 -82.9 845.1 -84.5 L 845.1 -84.5 L 845.1 -84.5 Q 845.1 -87.8 839.6 -91.3 L 839.6 -91.3 L 839.6 -91.3 Q 835.1 -94.2 834.1 -95.4 L 834.1 -95.4 L 834.1 -95.4 Q 832.3 -97.4 832.3 -100 L 832.3 -100 L 832.3 -100 Q 832.3 -102.5 833.6 -105 L 833.6 -105 L 833.6 -105 Q 834.8 -107.4 837 -109.1 L 837 -109.1 L 837 -109.1 Q 841.7 -112.7 849.8 -112.7 L 849.8 -112.7 L 849.8 -112.7 Q 854 -112.7 856.4 -111 L 856.4 -111 L 856.4 -111 Q 858.9 -109.4 858.9 -106.6 L 858.9 -106.6 L 858.9 -106.6 Q 858.9 -103.7 857.2 -102.1 L 857.2 -102.1 L 857.2 -102.1 Q 855.5 -100.5 852.4 -100.5 L 852.4 -100.5 L 852.4 -100.5 Q 850.3 -100.5 849.3 -101.2 Z M 891.1 -83.2 L 891.1 -83.2 L 891.1 -83.2 Q 888.4 -80.4 884.7 -79 L 884.7 -79 L 884.7 -79 Q 881 -77.5 877.4 -77.5 L 877.4 -77.5 L 877.4 -77.5 Q 873.8 -77.5 872.5 -78.1 L 872.5 -78.1 L 870.5 -67.3 L 857.5 -66 L 866.3 -111.4 L 876.8 -112.5 L 875.9 -108.1 L 875.9 -108.1 Q 878.6 -112.6 884.2 -112.6 L 884.2 -112.6 L 884.2 -112.6 Q 890.5 -112.6 893.8 -108.6 L 893.8 -108.6 L 893.8 -108.6 Q 896.7 -105 896.7 -99.4 L 896.7 -99.4 L 896.7 -99.4 Q 896.7 -93.8 895.3 -89.9 L 895.3 -89.9 L 895.3 -89.9 Q 893.8 -85.9 891.1 -83.2 Z M 876.6 -101.1 L 873.2 -82.4 L 873.2 -82.4 Q 874.6 -81.2 876.2 -81.2 L 876.2 -81.2 L 876.2 -81.2 Q 877.9 -81.2 878.9 -81.9 L 878.9 -81.9 L 878.9 -81.9 Q 879.8 -82.5 880.5 -83.8 L 880.5 -83.8 L 880.5 -83.8 Q 882.5 -87.2 884 -97.7 L 884 -97.7 L 884 -97.7 Q 884.4 -100.8 884.4 -103.8 L 884.4 -103.8 L 884.4 -103.8 Q 884.4 -106.8 883.8 -107.8 L 883.8 -107.8 L 883.8 -107.8 Q 883.1 -108.7 881.8 -108.7 L 881.8 -108.7 L 881.8 -108.7 Q 877.9 -108.7 876.6 -101.1 L 876.6 -101.1 Z M 915.9 -82.3 L 915.9 -82.3 L 915.9 -82.3 Q 913.9 -77.5 907.5 -77.5 L 907.5 -77.5 L 907.5 -77.5 Q 904.3 -77.5 902.3 -79.7 L 902.3 -79.7 L 902.3 -79.7 Q 900.6 -81.6 900.6 -83.7 L 900.6 -83.7 L 900.6 -83.7 Q 900.6 -88.5 902.9 -99 L 902.9 -99 L 907.5 -123.6 L 920.5 -124.9 L 914.3 -92.5 L 914.3 -92.5 Q 913.2 -87.7 913.2 -86.1 L 913.2 -86.1 L 913.2 -86.1 Q 913.2 -82.4 915.9 -82.3 Z M 924.1 -80.7 L 924.1 -80.7 L 924.1 -80.7 Q 922.6 -82.4 921.9 -85 L 921.9 -85 L 921.9 -85 Q 921.2 -87.6 921.2 -91.9 L 921.2 -91.9 L 921.2 -91.9 Q 921.2 -96.2 922.7 -100.1 L 922.7 -100.1 L 922.7 -100.1 Q 924.2 -104 926.9 -106.8 L 926.9 -106.8 L 926.9 -106.8 Q 932.4 -112.7 941.5 -112.7 L 941.5 -112.7 L 941.5 -112.7 Q 944.7 -112.7 947.1 -111.6 L 947.1 -111.6 L 958 -112.7 L 953.3 -87.7 L 953.3 -87.7 Q 953.1 -87 953.1 -85.6 L 953.1 -85.6 L 953.1 -85.6 Q 953.1 -84.2 954 -83.3 L 954 -83.3 L 954 -83.3 Q 954.8 -82.4 956.1 -82.2 L 956.1 -82.2 L 956.1 -82.2 Q 955.5 -80.1 953.1 -78.8 L 953.1 -78.8 L 953.1 -78.8 Q 950.8 -77.5 948.2 -77.5 L 948.2 -77.5 L 948.2 -77.5 Q 945.6 -77.5 943.8 -78.5 L 943.8 -78.5 L 943.8 -78.5 Q 942 -79.5 941.5 -81.2 L 941.5 -81.2 L 941.5 -81.2 Q 940.5 -79.6 938.3 -78.5 L 938.3 -78.5 L 938.3 -78.5 Q 936.2 -77.5 933.2 -77.5 L 933.2 -77.5 L 933.2 -77.5 Q 930.3 -77.5 928 -78.3 L 928 -78.3 L 928 -78.3 Q 925.6 -79 924.1 -80.7 Z M 937.6 -106.7 L 937.6 -106.7 L 937.6 -106.7 Q 936.9 -105.5 936.2 -103.6 L 936.2 -103.6 L 936.2 -103.6 Q 935.6 -101.6 934.5 -96.4 L 934.5 -96.4 L 934.5 -96.4 Q 933.5 -91.2 933.5 -87.5 L 933.5 -87.5 L 933.5 -87.5 Q 933.5 -83.8 934 -82.7 L 934 -82.7 L 934 -82.7 Q 934.6 -81.6 935.6 -81.6 L 935.6 -81.6 L 935.6 -81.6 Q 937.7 -81.6 939.2 -83.6 L 939.2 -83.6 L 939.2 -83.6 Q 940.7 -85.5 941.3 -89 L 941.3 -89 L 944.7 -107.7 L 944.7 -107.7 Q 943.3 -108.9 941.8 -108.9 L 941.8 -108.9 L 941.8 -108.9 Q 940.2 -108.9 939.3 -108.4 L 939.3 -108.4 L 939.3 -108.4 Q 938.3 -107.8 937.6 -106.7 Z M 980.6 -101.2 L 980.6 -101.2 L 980.6 -101.2 Q 981.5 -103.6 981.5 -105.7 L 981.5 -105.7 L 981.5 -105.7 Q 981.5 -109.4 978.5 -109.4 L 978.5 -109.4 L 978.5 -109.4 Q 976.9 -109.4 975.5 -108 L 975.5 -108 L 975.5 -108 Q 974.2 -106.6 974.2 -104.8 L 974.2 -104.8 L 974.2 -104.8 Q 974.2 -103.5 975.3 -102.5 L 975.3 -102.5 L 975.3 -102.5 Q 976.7 -101.1 980.5 -98.8 L 980.5 -98.8 L 980.5 -98.8 Q 984.3 -96.4 985.7 -94.6 L 985.7 -94.6 L 985.7 -94.6 Q 987.2 -92.7 987.2 -90.1 L 987.2 -90.1 L 987.2 -90.1 Q 987.2 -87.5 985.9 -85.1 L 985.9 -85.1 L 985.9 -85.1 Q 984.7 -82.8 982.4 -81.1 L 982.4 -81.1 L 982.4 -81.1 Q 977.6 -77.5 969.9 -77.5 L 969.9 -77.5 L 969.9 -77.5 Q 965.8 -77.5 962.6 -79.7 L 962.6 -79.7 L 962.6 -79.7 Q 959.4 -81.8 959.4 -84.3 L 959.4 -84.3 L 959.4 -84.3 Q 959.4 -86.8 961.2 -88.3 L 961.2 -88.3 L 961.2 -88.3 Q 963 -89.7 965.7 -89.7 L 965.7 -89.7 L 965.7 -89.7 Q 968.4 -89.7 970.1 -88.7 L 970.1 -88.7 L 970.1 -88.7 Q 969.2 -86.6 969.2 -85.2 L 969.2 -85.2 L 969.2 -85.2 Q 969.2 -81 972.8 -81 L 972.8 -81 L 972.8 -81 Q 974.4 -81 975.4 -81.9 L 975.4 -81.9 L 975.4 -81.9 Q 976.4 -82.9 976.4 -84.5 L 976.4 -84.5 L 976.4 -84.5 Q 976.4 -87.8 970.9 -91.3 L 970.9 -91.3 L 970.9 -91.3 Q 966.4 -94.2 965.4 -95.4 L 965.4 -95.4 L 965.4 -95.4 Q 963.7 -97.4 963.7 -100 L 963.7 -100 L 963.7 -100 Q 963.7 -102.5 964.9 -105 L 964.9 -105 L 964.9 -105 Q 966.1 -107.4 968.3 -109.1 L 968.3 -109.1 L 968.3 -109.1 Q 973 -112.7 981.1 -112.7 L 981.1 -112.7 L 981.1 -112.7 Q 985.3 -112.7 987.8 -111 L 987.8 -111 L 987.8 -111 Q 990.2 -109.4 990.2 -106.6 L 990.2 -106.6 L 990.2 -106.6 Q 990.2 -103.7 988.5 -102.1 L 988.5 -102.1 L 988.5 -102.1 Q 986.8 -100.5 983.8 -100.5 L 983.8 -100.5 L 983.8 -100.5 Q 981.7 -100.5 980.6 -101.2 Z M 1024.8 -85.9 L 1024.8 -85.9 L 1024.8 -85.9 Q 1024.8 -83.1 1027.7 -82.2 L 1027.7 -82.2 L 1027.7 -82.2 Q 1027 -79.9 1024.2 -78.6 L 1024.2 -78.6 L 1024.2 -78.6 Q 1021.9 -77.5 1019.4 -77.5 L 1019.4 -77.5 L 1019.4 -77.5 Q 1016.9 -77.5 1015.5 -78.2 L 1015.5 -78.2 L 1015.5 -78.2 Q 1014.2 -78.8 1013.5 -79.9 L 1013.5 -79.9 L 1013.5 -79.9 Q 1012.4 -81.6 1012.4 -84.7 L 1012.4 -84.7 L 1012.4 -84.7 Q 1012.4 -86.6 1013.4 -91.7 L 1013.4 -91.7 L 1014.3 -96.6 L 1014.3 -96.6 Q 1015.4 -102.1 1015.4 -104.2 L 1015.4 -104.2 L 1015.4 -104.2 Q 1015.4 -107.8 1013.4 -107.8 L 1013.4 -107.8 L 1013.4 -107.8 Q 1010.9 -107.8 1009.3 -104.1 L 1009.3 -104.1 L 1009.3 -104.1 Q 1008.7 -102.7 1008.2 -100.6 L 1008.2 -100.6 L 1003.9 -78.8 L 991 -77.5 L 1000 -123.6 L 1012.9 -124.9 L 1012.4 -122.3 L 1012.4 -122.3 Q 1010.6 -112.4 1009 -109.1 L 1009 -109.1 L 1009 -109.1 Q 1012.6 -112.7 1019.2 -112.7 L 1019.2 -112.7 L 1019.2 -112.7 Q 1026.2 -112.7 1027.5 -108.1 L 1027.5 -108.1 L 1027.5 -108.1 Q 1027.9 -106.6 1027.9 -105.3 L 1027.9 -105.3 L 1027.9 -105.3 Q 1027.9 -104.1 1027.8 -103.1 L 1027.8 -103.1 L 1027.8 -103.1 Q 1027.7 -102.1 1027.4 -100.3 L 1027.4 -100.3 L 1026.6 -95.7 L 1025.1 -88.4 L 1025.1 -88.4 Q 1024.8 -87 1024.8 -85.9 Z M 1074.1 -77.5 L 1074.1 -77.5 L 1074.1 -77.5 Q 1065.9 -77.5 1065.2 -89.2 L 1065.2 -89.2 L 1054.2 -89.2 L 1054.2 -89.2 Q 1052.9 -86.2 1052 -83.6 L 1052 -83.6 L 1050.3 -78.8 L 1041.4 -78.8 L 1061.5 -121 L 1075.3 -121 L 1078 -89.9 L 1078 -89.9 Q 1078.6 -83.2 1081.2 -81.2 L 1081.2 -81.2 L 1081.2 -81.2 Q 1079.3 -77.5 1074.1 -77.5 Z M 1059.7 -102 L 1056.2 -93.8 L 1065 -93.8 L 1064.2 -110.3 L 1064.2 -112 L 1059.7 -102 Z M 1109.9 -121.5 L 1109.9 -121.5 L 1109.9 -121.5 Q 1125.6 -121.5 1125.6 -110.4 L 1125.6 -110.4 L 1125.6 -110.4 Q 1125.6 -104.3 1121.7 -100.7 L 1121.7 -100.7 L 1121.7 -100.7 Q 1117.8 -97 1111.1 -97 L 1111.1 -97 L 1111.1 -97 Q 1108 -97 1105.6 -98.8 L 1105.6 -98.8 L 1105.6 -98.8 Q 1104.4 -99.6 1103.6 -100.6 L 1103.6 -100.6 L 1103.6 -100.6 Q 1108.3 -100.6 1110.8 -103.5 L 1110.8 -103.5 L 1110.8 -103.5 Q 1113.2 -106.3 1113.2 -111.9 L 1113.2 -111.9 L 1113.2 -111.9 Q 1113.2 -117.4 1107.7 -117.4 L 1107.7 -117.4 L 1106.2 -117.4 L 1106.2 -117.4 Q 1105.8 -117.4 1105.5 -117.4 L 1105.5 -117.4 L 1098.1 -78.8 L 1084.2 -78.8 L 1092.1 -120.7 L 1092.1 -120.7 Q 1099 -121.3 1102.9 -121.4 L 1102.9 -121.4 L 1102.9 -121.4 Q 1106.9 -121.5 1109.9 -121.5 Z M 1139.2 -78.8 L 1125.2 -78.8 L 1133.3 -121 L 1147.4 -121 L 1139.2 -78.8 Z" fill="url(#editing-shiny-gradient)"></path></g></g><g filter="url(#editing-shiny2)"><g transform="matrix(null,null,null,null,null,null)"><path fill="url(#editing-shiny-gradient2)"></path></g></g><style>text {
  font-size: 64px;
  font-family: Arial Black;
  dominant-baseline: central;
  text-anchor: middle;
}</style></svg>