<svg width="1462.6px" height="122px" xmlns="http://www.w3.org/2000/svg" viewBox="-481.3229736328125 14 1462.645947265625 122" style="background: rgba(0, 0, 0, 0)" preserveAspectRatio="xMidYMid"><defs><linearGradient id="editing-shiny-gradient" x1="0.04322727117869957" x2="0.9567727288213004" y1="0.2966316784620999" y2="0.7033683215379001" gradientUnits="objectBoundingBox"><stop offset="0" stop-color="#ffb200"></stop><stop offset="0.5" stop-color="#e10057"></stop><stop offset="1" stop-color="#5a1a80"></stop></linearGradient><linearGradient id="editing-shiny-gradient2" x1="0" x2="0" y1="0" y2="1"><stop offset="0.2" stop-color="#ffffff" stop-opacity="0.8"></stop><stop offset="0.8" stop-color="#ffffff" stop-opacity="0"></stop></linearGradient><filter id="editing-shiny2" x="-100%" y="-100%" width="300%" height="300%"><feMorphology operator="erode" radius="2"></feMorphology></filter><filter id="editing-shiny" x="-100%" y="-100%" width="300%" height="300%"><feFlood flood-color="#fff" result="flood"></feFlood><feConvolveMatrix in="SourceGraphic" result="conv" order="8,8" divisor="1" kernelMatrix="0 0 0 0 0 0 0 0 0 0 0 1 1 0 0 0 0 0 0 1 1 0 0 0 0 0 1 0 0 1 0 0 0 0 1 0 0 1 0 0 0 1 0 0 0 0 1 0 0 1 1 0 0 1 1 0 0 0 0 1 1 0 0 0 "></feConvolveMatrix><feOffset dx="0" dy="4" in="conv" result="offset"></feOffset><feComposite operator="in" in="flood" in2="offset" result="comp"></feComposite><feGaussianBlur in="offset" stdDeviation="3" result="shadow"></feGaussianBlur><feColorMatrix in="shadow" type="matrix" values="0.7 0 0 0 0  0 0.7 0 0 0  0 0 0.7 0 0  0 0 0 0.3 0" result="dark-shadow"></feColorMatrix><feOffset dx="0" dy="4" in="dark-shadow" result="offset-shadow"></feOffset><feOffset dx="0" dy="2" in="conv" result="offset-2"></feOffset><feComposite operator="out" in="offset" in2="offset-2" result="edge-diff"></feComposite><feGaussianBlur in="edge-diff" stdDeviation="1" result="edge-blur"></feGaussianBlur><feColorMatrix in="edge-blur" result="edge-shadow" type="matrix" values="0 0 0 0 0  0 0 0 0 0  0 0 0 0 0  0 0 0 0.5 0"></feColorMatrix><feComposite operator="in" in="edge-shadow" in2="offset" result="edge-shadow-in"></feComposite><feOffset dx="0" dy="1" in="edge-shadow-in" result="edge-shadow-final"></feOffset><feMerge result="out"><feMergeNode in="offset-shadow"></feMergeNode><feMergeNode in="comp"></feMergeNode><feMergeNode in="edge-shadow-final"></feMergeNode><feMergeNode in="SourceGraphic"></feMergeNode></feMerge></filter></defs><g filter="url(#editing-shiny)"><g transform="matrix(1.3,0,0,1.7,-527.2,203)"><path d="M 71.9 -64.6 L 58 -64.6 L 66.1 -106.8 L 80.2 -106.8 L 71.9 -64.6 Z M 127.7 -63.3 L 127.7 -63.3 L 127.7 -63.3 Q 119.9 -63.3 119.9 -69.3 L 119.9 -69.3 L 119.9 -69.3 Q 119.9 -72 121.1 -77 L 121.1 -77 L 121.1 -77 Q 122.2 -82.1 122.6 -84.2 L 122.6 -84.2 L 122.6 -84.2 Q 123.5 -88.9 123.5 -90.3 L 123.5 -90.3 L 123.5 -90.3 Q 123.5 -93.6 121 -93.6 L 121 -93.6 L 121 -93.6 Q 119.4 -93.6 117.9 -91.4 L 117.9 -91.4 L 117.9 -91.4 Q 116.4 -89.2 115.6 -84.8 L 115.6 -84.8 L 111.7 -64.6 L 99.2 -63.3 L 102.7 -80.7 L 102.7 -80.7 Q 103.2 -83.6 103.7 -86.9 L 103.7 -86.9 L 103.7 -86.9 Q 104.3 -90.1 104.3 -90.7 L 104.3 -90.7 L 104.3 -90.7 Q 104.3 -93.6 102.1 -93.6 L 102.1 -93.6 L 102.1 -93.6 Q 100.6 -93.6 99 -91.4 L 99 -91.4 L 99 -91.4 Q 97.4 -89.2 96.5 -84.8 L 96.5 -84.8 L 92.6 -64.6 L 80 -63.3 L 86.7 -97.2 L 97.1 -98.5 L 96.1 -92.1 L 96.1 -92.1 Q 97.7 -95.5 100.8 -97 L 100.8 -97 L 100.8 -97 Q 103.9 -98.5 108.7 -98.5 L 108.7 -98.5 L 108.7 -98.5 Q 111.4 -98.5 113.2 -97.2 L 113.2 -97.2 L 113.2 -97.2 Q 115 -95.8 115.6 -93.7 L 115.6 -93.7 L 115.6 -93.7 Q 116.7 -95.9 119.5 -97.2 L 119.5 -97.2 L 119.5 -97.2 Q 122.2 -98.5 125.7 -98.5 L 125.7 -98.5 L 125.7 -98.5 Q 129.1 -98.5 130.8 -97.8 L 130.8 -97.8 L 130.8 -97.8 Q 132.5 -97.1 133.5 -95.8 L 133.5 -95.8 L 133.5 -95.8 Q 135.2 -93.6 135.2 -89.5 L 135.2 -89.5 L 135.2 -89.5 Q 135.2 -85.5 133.5 -77.1 L 133.5 -77.1 L 133.5 -77.1 Q 132.6 -73 132.6 -71.5 L 132.6 -71.5 L 132.6 -71.5 Q 132.6 -70 133.5 -69.1 L 133.5 -69.1 L 133.5 -69.1 Q 134.3 -68.2 135.6 -68.1 L 135.6 -68.1 L 135.6 -68.1 Q 135 -65.9 132.8 -64.6 L 132.8 -64.6 L 132.8 -64.6 Q 130.6 -63.3 127.7 -63.3 Z M 143.3 -66.5 L 143.3 -66.5 L 143.3 -66.5 Q 141.8 -68.2 141.1 -70.8 L 141.1 -70.8 L 141.1 -70.8 Q 140.5 -73.4 140.5 -77.7 L 140.5 -77.7 L 140.5 -77.7 Q 140.5 -82 141.9 -85.9 L 141.9 -85.9 L 141.9 -85.9 Q 143.4 -89.8 146.1 -92.6 L 146.1 -92.6 L 146.1 -92.6 Q 151.6 -98.5 160.7 -98.5 L 160.7 -98.5 L 160.7 -98.5 Q 164 -98.5 166.3 -97.4 L 166.3 -97.4 L 177.3 -98.5 L 172.5 -73.6 L 172.5 -73.6 Q 172.4 -72.8 172.4 -71.4 L 172.4 -71.4 L 172.4 -71.4 Q 172.4 -70 173.2 -69.1 L 173.2 -69.1 L 173.2 -69.1 Q 174.1 -68.2 175.4 -68.1 L 175.4 -68.1 L 175.4 -68.1 Q 174.7 -65.9 172.4 -64.6 L 172.4 -64.6 L 172.4 -64.6 Q 170.1 -63.3 167.4 -63.3 L 167.4 -63.3 L 167.4 -63.3 Q 164.8 -63.3 163 -64.3 L 163 -64.3 L 163 -64.3 Q 161.3 -65.3 160.8 -67 L 160.8 -67 L 160.8 -67 Q 159.7 -65.4 157.6 -64.3 L 157.6 -64.3 L 157.6 -64.3 Q 155.4 -63.3 152.5 -63.3 L 152.5 -63.3 L 152.5 -63.3 Q 149.6 -63.3 147.2 -64.1 L 147.2 -64.1 L 147.2 -64.1 Q 144.8 -64.9 143.3 -66.5 Z M 156.8 -92.5 L 156.8 -92.5 L 156.8 -92.5 Q 156.1 -91.4 155.5 -89.4 L 155.5 -89.4 L 155.5 -89.4 Q 154.8 -87.5 153.8 -82.2 L 153.8 -82.2 L 153.8 -82.2 Q 152.7 -77 152.7 -73.3 L 152.7 -73.3 L 152.7 -73.3 Q 152.7 -69.6 153.3 -68.5 L 153.3 -68.5 L 153.3 -68.5 Q 153.9 -67.4 154.9 -67.4 L 154.9 -67.4 L 154.9 -67.4 Q 156.9 -67.4 158.4 -69.4 L 158.4 -69.4 L 158.4 -69.4 Q 159.9 -71.3 160.5 -74.8 L 160.5 -74.8 L 163.9 -93.5 L 163.9 -93.5 Q 162.6 -94.7 161 -94.7 L 161 -94.7 L 161 -94.7 Q 159.4 -94.7 158.5 -94.2 L 158.5 -94.2 L 158.5 -94.2 Q 157.6 -93.7 156.8 -92.5 Z M 185 -91.4 L 185 -91.4 L 185 -91.4 Q 187.2 -94.4 190.5 -96.5 L 190.5 -96.5 L 190.5 -96.5 Q 193.8 -98.5 197.8 -98.5 L 197.8 -98.5 L 197.8 -98.5 Q 201.9 -98.5 203.8 -97.2 L 203.8 -97.2 L 216.3 -98.5 L 212 -73.9 L 212 -73.9 Q 209.7 -61.4 205 -56.5 L 205 -56.5 L 205 -56.5 Q 200.4 -51.8 191.6 -51.8 L 191.6 -51.8 L 191.6 -51.8 Q 184.9 -51.8 181.1 -53.9 L 181.1 -53.9 L 181.1 -53.9 Q 177.2 -56 177.2 -59.5 L 177.2 -59.5 L 177.2 -59.5 Q 177.2 -62.2 179.2 -63.7 L 179.2 -63.7 L 179.2 -63.7 Q 181.2 -65.2 184.3 -65.2 L 184.3 -65.2 L 184.3 -65.2 Q 186.9 -65.2 189 -64 L 189 -64 L 189 -64 Q 190.2 -63.3 190.8 -62.4 L 190.8 -62.4 L 190.8 -62.4 Q 189.3 -61.1 189.3 -59 L 189.3 -59 L 189.3 -59 Q 189.3 -56.3 191.9 -56.3 L 191.9 -56.3 L 191.9 -56.3 Q 196.2 -56.3 198.6 -66.4 L 198.6 -66.4 L 198.6 -66.4 Q 199.3 -69.1 199.9 -71.9 L 199.9 -71.9 L 199.9 -71.9 Q 197 -68.4 190.5 -68.4 L 190.5 -68.4 L 190.5 -68.4 Q 185.9 -68.4 183.3 -70.6 L 183.3 -70.6 L 183.3 -70.6 Q 180.7 -72.7 180.7 -77.9 L 180.7 -77.9 L 180.7 -77.9 Q 180.7 -81 181.8 -84.7 L 181.8 -84.7 L 181.8 -84.7 Q 182.9 -88.3 185 -91.4 Z M 193.3 -77.7 L 193.3 -77.7 L 193.3 -77.7 Q 193.3 -73.3 195.6 -73.3 L 195.6 -73.3 L 195.6 -73.3 Q 197.1 -73.3 198.6 -75 L 198.6 -75 L 198.6 -75 Q 199.7 -76.3 200.2 -78.3 L 200.2 -78.3 L 203.5 -94.7 L 203.5 -94.7 Q 203.1 -94.8 202.8 -94.9 L 202.8 -94.9 L 202.8 -94.9 Q 202.2 -95.2 201.3 -95.2 L 201.3 -95.2 L 201.3 -95.2 Q 197.4 -95.2 195.1 -88.8 L 195.1 -88.8 L 195.1 -88.8 Q 193.3 -83.8 193.3 -77.7 Z M 244.7 -75.4 L 244.7 -75.4 L 244.7 -75.4 Q 246.3 -74.3 246.3 -71.9 L 246.3 -71.9 L 246.3 -71.9 Q 246.3 -69.5 245.1 -68 L 245.1 -68 L 245.1 -68 Q 243.9 -66.5 241.9 -65.4 L 241.9 -65.4 L 241.9 -65.4 Q 237.8 -63.3 233.4 -63.3 L 233.4 -63.3 L 233.4 -63.3 Q 229 -63.3 226.4 -64.3 L 226.4 -64.3 L 226.4 -64.3 Q 223.8 -65.2 222.1 -67 L 222.1 -67 L 222.1 -67 Q 218.7 -70.4 218.7 -76.6 L 218.7 -76.6 L 218.7 -76.6 Q 218.7 -86.3 223.9 -92.2 L 223.9 -92.2 L 223.9 -92.2 Q 229.6 -98.5 239.4 -98.5 L 239.4 -98.5 L 239.4 -98.5 Q 245.4 -98.5 248.4 -96 L 248.4 -96 L 248.4 -96 Q 250.7 -94 250.7 -90.9 L 250.7 -90.9 L 250.7 -90.9 Q 250.7 -79.6 231.2 -79.6 L 231.2 -79.6 L 231.2 -79.6 Q 231 -78 231 -76.6 L 231 -76.6 L 231 -76.6 Q 231 -73.6 232.3 -72.5 L 232.3 -72.5 L 232.3 -72.5 Q 233.6 -71.4 236 -71.4 L 236 -71.4 L 236 -71.4 Q 238.5 -71.4 241.1 -72.5 L 241.1 -72.5 L 241.1 -72.5 Q 243.7 -73.6 244.7 -75.4 Z M 231.7 -82.4 L 231.7 -82.4 L 231.7 -82.4 Q 236.2 -82.4 238.9 -85.2 L 238.9 -85.2 L 238.9 -85.2 Q 241.5 -87.9 241.5 -92.2 L 241.5 -92.2 L 241.5 -92.2 Q 241.5 -93.7 240.9 -94.5 L 240.9 -94.5 L 240.9 -94.5 Q 240.4 -95.3 239.3 -95.3 L 239.3 -95.3 L 239.3 -95.3 Q 238.2 -95.3 237.3 -94.8 L 237.3 -94.8 L 237.3 -94.8 Q 236.4 -94.4 235.4 -93 L 235.4 -93 L 235.4 -93 Q 233 -89.8 231.7 -82.4 Z M 272 -87.1 L 272 -87.1 L 272 -87.1 Q 272.9 -89.4 272.9 -91.5 L 272.9 -91.5 L 272.9 -91.5 Q 272.9 -95.3 269.8 -95.3 L 269.8 -95.3 L 269.8 -95.3 Q 268.2 -95.3 266.9 -93.8 L 266.9 -93.8 L 266.9 -93.8 Q 265.6 -92.4 265.6 -90.6 L 265.6 -90.6 L 265.6 -90.6 Q 265.6 -89.3 266.6 -88.3 L 266.6 -88.3 L 266.6 -88.3 Q 268.1 -86.9 271.9 -84.6 L 271.9 -84.6 L 271.9 -84.6 Q 275.7 -82.3 277.1 -80.4 L 277.1 -80.4 L 277.1 -80.4 Q 278.5 -78.5 278.5 -75.9 L 278.5 -75.9 L 278.5 -75.9 Q 278.5 -73.3 277.3 -70.9 L 277.3 -70.9 L 277.3 -70.9 Q 276 -68.6 273.8 -66.9 L 273.8 -66.9 L 273.8 -66.9 Q 269 -63.3 261.3 -63.3 L 261.3 -63.3 L 261.3 -63.3 Q 257.2 -63.3 253.9 -65.5 L 253.9 -65.5 L 253.9 -65.5 Q 250.8 -67.6 250.8 -70.1 L 250.8 -70.1 L 250.8 -70.1 Q 250.8 -72.6 252.6 -74.1 L 252.6 -74.1 L 252.6 -74.1 Q 254.4 -75.5 257.1 -75.5 L 257.1 -75.5 L 257.1 -75.5 Q 259.8 -75.5 261.4 -74.5 L 261.4 -74.5 L 261.4 -74.5 Q 260.6 -72.4 260.6 -71 L 260.6 -71 L 260.6 -71 Q 260.6 -66.8 264.2 -66.8 L 264.2 -66.8 L 264.2 -66.8 Q 265.7 -66.8 266.8 -67.7 L 266.8 -67.7 L 266.8 -67.7 Q 267.8 -68.7 267.8 -70.4 L 267.8 -70.4 L 267.8 -70.4 Q 267.8 -73.6 262.3 -77.1 L 262.3 -77.1 L 262.3 -77.1 Q 257.8 -80 256.8 -81.2 L 256.8 -81.2 L 256.8 -81.2 Q 255 -83.2 255 -85.8 L 255 -85.8 L 255 -85.8 Q 255 -88.3 256.3 -90.8 L 256.3 -90.8 L 256.3 -90.8 Q 257.5 -93.2 259.7 -94.9 L 259.7 -94.9 L 259.7 -94.9 Q 264.4 -98.5 272.5 -98.5 L 272.5 -98.5 L 272.5 -98.5 Q 276.7 -98.5 279.1 -96.9 L 279.1 -96.9 L 279.1 -96.9 Q 281.6 -95.2 281.6 -92.4 L 281.6 -92.4 L 281.6 -92.4 Q 281.6 -89.6 279.9 -88 L 279.9 -88 L 279.9 -88 Q 278.2 -86.4 275.1 -86.4 L 275.1 -86.4 L 275.1 -86.4 Q 273 -86.4 272 -87.1 Z M 323.1 -85.2 L 336 -86.4 L 336 -86.4 Q 331.4 -76.3 331.4 -64.5 L 331.4 -64.5 L 331.4 -64.5 Q 329.7 -63.3 327.1 -63.3 L 327.1 -63.3 L 327.1 -63.3 Q 324.6 -63.3 323 -64.5 L 323 -64.5 L 323 -64.5 Q 321.4 -65.7 321.1 -66.9 L 321.1 -66.9 L 321.1 -66.9 Q 319.5 -65.2 316.9 -64.3 L 316.9 -64.3 L 316.9 -64.3 Q 314.3 -63.3 311.5 -63.3 L 311.5 -63.3 L 311.5 -63.3 Q 308.8 -63.3 306.4 -64.2 L 306.4 -64.2 L 306.4 -64.2 Q 304 -65.1 302.1 -67.1 L 302.1 -67.1 L 302.1 -67.1 Q 298 -71.4 298 -79.7 L 298 -79.7 L 298 -79.7 Q 298 -92.5 304.9 -100.2 L 304.9 -100.2 L 304.9 -100.2 Q 311.9 -108.1 324.4 -108.1 L 324.4 -108.1 L 324.4 -108.1 Q 333.1 -108.1 336.1 -103.6 L 336.1 -103.6 L 336.1 -103.6 Q 337.1 -102.2 337.1 -100.5 L 337.1 -100.5 L 337.1 -100.5 Q 337.1 -98.8 336.4 -97.4 L 336.4 -97.4 L 336.4 -97.4 Q 335.6 -96 334.5 -94.8 L 334.5 -94.8 L 334.5 -94.8 Q 331.7 -92.2 328.3 -92.2 L 328.3 -92.2 L 328.3 -92.2 Q 327 -92.2 325.7 -92.7 L 325.7 -92.7 L 325.7 -92.7 Q 326 -94.6 326 -96.9 L 326 -96.9 L 326 -96.9 Q 326 -99.1 325.8 -100.1 L 325.8 -100.1 L 325.8 -100.1 Q 325.6 -101.1 325.2 -102 L 325.2 -102 L 325.2 -102 Q 324.4 -103.7 322.6 -103.7 L 322.6 -103.7 L 322.6 -103.7 Q 320.8 -103.7 318.7 -101.7 L 318.7 -101.7 L 318.7 -101.7 Q 316.7 -99.8 315.1 -96.6 L 315.1 -96.6 L 315.1 -96.6 Q 311.6 -89.4 311.6 -80.8 L 311.6 -80.8 L 311.6 -80.8 Q 311.6 -76.8 313.2 -74 L 313.2 -74 L 313.2 -74 Q 314.8 -70.9 317.8 -70.9 L 317.8 -70.9 L 317.8 -70.9 Q 318.8 -70.9 319.7 -71.4 L 319.7 -71.4 L 319.7 -71.4 Q 320.6 -72 321 -72.3 L 321 -72.3 L 323.1 -85.2 Z M 341.9 -66.5 L 341.9 -66.5 L 341.9 -66.5 Q 340.4 -68.2 339.7 -70.8 L 339.7 -70.8 L 339.7 -70.8 Q 339.1 -73.4 339.1 -77.7 L 339.1 -77.7 L 339.1 -77.7 Q 339.1 -82 340.5 -85.9 L 340.5 -85.9 L 340.5 -85.9 Q 342 -89.8 344.7 -92.6 L 344.7 -92.6 L 344.7 -92.6 Q 350.2 -98.5 359.3 -98.5 L 359.3 -98.5 L 359.3 -98.5 Q 362.6 -98.5 364.9 -97.4 L 364.9 -97.4 L 375.9 -98.5 L 371.1 -73.6 L 371.1 -73.6 Q 370.9 -72.8 370.9 -71.4 L 370.9 -71.4 L 370.9 -71.4 Q 370.9 -70 371.8 -69.1 L 371.8 -69.1 L 371.8 -69.1 Q 372.7 -68.2 374 -68.1 L 374 -68.1 L 374 -68.1 Q 373.3 -65.9 371 -64.6 L 371 -64.6 L 371 -64.6 Q 368.6 -63.3 366 -63.3 L 366 -63.3 L 366 -63.3 Q 363.4 -63.3 361.6 -64.3 L 361.6 -64.3 L 361.6 -64.3 Q 359.9 -65.3 359.4 -67 L 359.4 -67 L 359.4 -67 Q 358.3 -65.4 356.2 -64.3 L 356.2 -64.3 L 356.2 -64.3 Q 354 -63.3 351.1 -63.3 L 351.1 -63.3 L 351.1 -63.3 Q 348.2 -63.3 345.8 -64.1 L 345.8 -64.1 L 345.8 -64.1 Q 343.4 -64.9 341.9 -66.5 Z M 355.4 -92.5 L 355.4 -92.5 L 355.4 -92.5 Q 354.7 -91.4 354 -89.4 L 354 -89.4 L 354 -89.4 Q 353.4 -87.5 352.4 -82.2 L 352.4 -82.2 L 352.4 -82.2 Q 351.3 -77 351.3 -73.3 L 351.3 -73.3 L 351.3 -73.3 Q 351.3 -69.6 351.9 -68.5 L 351.9 -68.5 L 351.9 -68.5 Q 352.5 -67.4 353.5 -67.4 L 353.5 -67.4 L 353.5 -67.4 Q 355.5 -67.4 357 -69.4 L 357 -69.4 L 357 -69.4 Q 358.5 -71.3 359.1 -74.8 L 359.1 -74.8 L 362.5 -93.5 L 362.5 -93.5 Q 361.2 -94.7 359.6 -94.7 L 359.6 -94.7 L 359.6 -94.7 Q 358 -94.7 357.1 -94.2 L 357.1 -94.2 L 357.1 -94.2 Q 356.2 -93.7 355.4 -92.5 Z M 394.6 -68.1 L 394.6 -68.1 L 394.6 -68.1 Q 392.6 -63.3 386.3 -63.3 L 386.3 -63.3 L 386.3 -63.3 Q 383.1 -63.3 381.1 -65.6 L 381.1 -65.6 L 381.1 -65.6 Q 379.4 -67.4 379.4 -69.5 L 379.4 -69.5 L 379.4 -69.5 Q 379.4 -74.3 381.6 -84.8 L 381.6 -84.8 L 386.3 -109.4 L 399.3 -110.7 L 393.1 -78.3 L 393.1 -78.3 Q 392 -73.6 392 -71.9 L 392 -71.9 L 392 -71.9 Q 392 -68.2 394.6 -68.1 Z M 415.4 -68.1 L 415.4 -68.1 L 415.4 -68.1 Q 413.4 -63.3 407 -63.3 L 407 -63.3 L 407 -63.3 Q 403.8 -63.3 401.8 -65.6 L 401.8 -65.6 L 401.8 -65.6 Q 400.1 -67.4 400.1 -69.5 L 400.1 -69.5 L 400.1 -69.5 Q 400.1 -74.3 402.4 -84.8 L 402.4 -84.8 L 407 -109.4 L 420 -110.7 L 413.8 -78.3 L 413.8 -78.3 Q 412.7 -73.6 412.7 -71.9 L 412.7 -71.9 L 412.7 -71.9 Q 412.7 -68.2 415.4 -68.1 Z M 446.7 -75.4 L 446.7 -75.4 L 446.7 -75.4 Q 448.3 -74.3 448.3 -71.9 L 448.3 -71.9 L 448.3 -71.9 Q 448.3 -69.5 447.1 -68 L 447.1 -68 L 447.1 -68 Q 445.9 -66.5 443.9 -65.4 L 443.9 -65.4 L 443.9 -65.4 Q 439.8 -63.3 435.4 -63.3 L 435.4 -63.3 L 435.4 -63.3 Q 431 -63.3 428.4 -64.3 L 428.4 -64.3 L 428.4 -64.3 Q 425.8 -65.2 424.1 -67 L 424.1 -67 L 424.1 -67 Q 420.7 -70.4 420.7 -76.6 L 420.7 -76.6 L 420.7 -76.6 Q 420.7 -86.3 425.9 -92.2 L 425.9 -92.2 L 425.9 -92.2 Q 431.5 -98.5 441.3 -98.5 L 441.3 -98.5 L 441.3 -98.5 Q 447.4 -98.5 450.4 -96 L 450.4 -96 L 450.4 -96 Q 452.7 -94 452.7 -90.9 L 452.7 -90.9 L 452.7 -90.9 Q 452.7 -79.6 433.2 -79.6 L 433.2 -79.6 L 433.2 -79.6 Q 433 -78 433 -76.6 L 433 -76.6 L 433 -76.6 Q 433 -73.6 434.3 -72.5 L 434.3 -72.5 L 434.3 -72.5 Q 435.6 -71.4 438 -71.4 L 438 -71.4 L 438 -71.4 Q 440.5 -71.4 443 -72.5 L 443 -72.5 L 443 -72.5 Q 445.6 -73.6 446.7 -75.4 Z M 433.7 -82.4 L 433.7 -82.4 L 433.7 -82.4 Q 438.2 -82.4 440.8 -85.2 L 440.8 -85.2 L 440.8 -85.2 Q 443.5 -87.9 443.5 -92.2 L 443.5 -92.2 L 443.5 -92.2 Q 443.5 -93.7 442.9 -94.5 L 442.9 -94.5 L 442.9 -94.5 Q 442.4 -95.3 441.3 -95.3 L 441.3 -95.3 L 441.3 -95.3 Q 440.2 -95.3 439.3 -94.8 L 439.3 -94.8 L 439.3 -94.8 Q 438.3 -94.4 437.4 -93 L 437.4 -93 L 437.4 -93 Q 435 -89.8 433.7 -82.4 Z M 474.9 -82.6 L 474.9 -82.6 L 474.9 -82.6 Q 477.2 -86.7 477.2 -90.8 L 477.2 -90.8 L 477.2 -90.8 Q 477.2 -93.6 475.2 -93.6 L 475.2 -93.6 L 475.2 -93.6 Q 473.7 -93.6 472.1 -91 L 472.1 -91 L 472.1 -91 Q 470.4 -88.3 469.9 -85 L 469.9 -85 L 466.6 -64.6 L 453.3 -63.3 L 459.8 -97.2 L 470.4 -98.5 L 469.2 -92.1 L 469.2 -92.1 Q 472.4 -98.5 479.4 -98.5 L 479.4 -98.5 L 479.4 -98.5 Q 483.1 -98.5 485.2 -96.6 L 485.2 -96.6 L 485.2 -96.6 Q 487.2 -94.7 487.2 -90.7 L 487.2 -90.7 L 487.2 -90.7 Q 487.2 -86.8 484.6 -84.3 L 484.6 -84.3 L 484.6 -84.3 Q 482 -81.8 477.6 -81.8 L 477.6 -81.8 L 477.6 -81.8 Q 475.7 -81.8 474.9 -82.6 Z M 508.5 -71.8 L 508.5 -71.8 L 508.5 -71.8 Q 505.2 -68.4 499.1 -68.4 L 499.1 -68.4 L 499.1 -68.4 Q 491.5 -68.4 489.9 -73.9 L 489.9 -73.9 L 489.9 -73.9 Q 489.4 -75.6 489.4 -77.5 L 489.4 -77.5 L 489.4 -77.5 Q 489.4 -79.3 489.8 -81.2 L 489.8 -81.2 L 492.8 -97.2 L 505.8 -98.5 L 502.3 -79.9 L 502.3 -79.9 Q 502.1 -79.1 502 -78.2 L 502 -78.2 L 502 -78.2 Q 501.8 -77.3 501.8 -76.3 L 501.8 -76.3 L 501.8 -76.3 Q 501.8 -75.4 502.1 -74.8 L 502.1 -74.8 L 502.1 -74.8 Q 502.4 -74.2 502.9 -73.8 L 502.9 -73.8 L 502.9 -73.8 Q 503.6 -73.3 505 -73.3 L 505 -73.3 L 505 -73.3 Q 506.4 -73.3 507.5 -75 L 507.5 -75 L 507.5 -75 Q 508.7 -76.6 509.3 -79.5 L 509.3 -79.5 L 512.8 -97.2 L 525.4 -98.5 L 520.6 -73.4 L 520.6 -73.4 Q 518.3 -61.1 513.4 -56.2 L 513.4 -56.2 L 513.4 -56.2 Q 510.9 -53.7 507.7 -52.7 L 507.7 -52.7 L 507.7 -52.7 Q 504.5 -51.7 500.3 -51.7 L 500.3 -51.7 L 500.3 -51.7 Q 493.6 -51.7 489.7 -53.8 L 489.7 -53.8 L 489.7 -53.8 Q 485.9 -56 485.9 -59.5 L 485.9 -59.5 L 485.9 -59.5 Q 485.9 -62.1 487.9 -63.6 L 487.9 -63.6 L 487.9 -63.6 Q 489.9 -65.1 492.9 -65.1 L 492.9 -65.1 L 492.9 -65.1 Q 495.6 -65.1 497.7 -64 L 497.7 -64 L 497.7 -64 Q 498.9 -63.3 499.5 -62.4 L 499.5 -62.4 L 499.5 -62.4 Q 498 -61.1 498 -59 L 498 -59 L 498 -59 Q 498 -56.2 500.5 -56.2 L 500.5 -56.2 L 500.5 -56.2 Q 504.8 -56.2 507.2 -65.9 L 507.2 -65.9 L 507.2 -65.9 Q 507.9 -68.8 508.5 -71.8 Z M 570.1 -98.5 L 570.1 -98.5 L 570.1 -98.5 Q 564.9 -98.5 561.1 -100.2 L 561.1 -100.2 L 559 -89.9 L 571.4 -89.9 L 571.4 -89.9 Q 571.4 -86.5 569.7 -84.3 L 569.7 -84.3 L 569.7 -84.3 Q 568 -82.2 564.9 -82.2 L 564.9 -82.2 L 564.9 -82.2 Q 561.6 -82.2 558.5 -83.4 L 558.5 -83.4 L 558.5 -83.4 Q 557.9 -83.7 557.8 -83.7 L 557.8 -83.7 L 554.2 -64.6 L 540.2 -64.6 L 548.4 -106.8 L 576.9 -106.8 L 576.9 -106.8 Q 576.9 -102.9 575.1 -100.7 L 575.1 -100.7 L 575.1 -100.7 Q 573.2 -98.5 570.1 -98.5 Z M 594.8 -82.6 L 594.8 -82.6 L 594.8 -82.6 Q 597.1 -86.7 597.1 -90.8 L 597.1 -90.8 L 597.1 -90.8 Q 597.1 -93.6 595.1 -93.6 L 595.1 -93.6 L 595.1 -93.6 Q 593.6 -93.6 592 -91 L 592 -91 L 592 -91 Q 590.3 -88.3 589.8 -85 L 589.8 -85 L 586.5 -64.6 L 573.2 -63.3 L 579.8 -97.2 L 590.3 -98.5 L 589.2 -92.1 L 589.2 -92.1 Q 592.3 -98.5 599.4 -98.5 L 599.4 -98.5 L 599.4 -98.5 Q 603.1 -98.5 605.1 -96.6 L 605.1 -96.6 L 605.1 -96.6 Q 607.1 -94.7 607.1 -90.7 L 607.1 -90.7 L 607.1 -90.7 Q 607.1 -86.8 604.5 -84.3 L 604.5 -84.3 L 604.5 -84.3 Q 601.9 -81.8 597.5 -81.8 L 597.5 -81.8 L 597.5 -81.8 Q 595.6 -81.8 594.8 -82.6 Z M 622.1 -63.3 L 622.1 -63.3 L 622.1 -63.3 Q 608 -63.3 608 -76.6 L 608 -76.6 L 608 -76.6 Q 608 -86 613.2 -92.1 L 613.2 -92.1 L 613.2 -92.1 Q 618.7 -98.5 628.2 -98.5 L 628.2 -98.5 L 628.2 -98.5 Q 635.1 -98.5 638.7 -95.3 L 638.7 -95.3 L 638.7 -95.3 Q 642.2 -92.1 642.2 -85.4 L 642.2 -85.4 L 642.2 -85.4 Q 642.2 -75.2 636.7 -69.2 L 636.7 -69.2 L 636.7 -69.2 Q 631.3 -63.3 622.1 -63.3 Z M 623.7 -91.2 L 623.7 -91.2 L 623.7 -91.2 Q 623 -89.4 622.4 -86.8 L 622.4 -86.8 L 622.4 -86.8 Q 621.8 -84.2 621 -80.2 L 621 -80.2 L 621 -80.2 Q 620.2 -76.1 620.2 -71 L 620.2 -71 L 620.2 -71 Q 620.2 -69.3 620.8 -68.2 L 620.8 -68.2 L 620.8 -68.2 Q 621.3 -67.2 622.8 -67.2 L 622.8 -67.2 L 622.8 -67.2 Q 624.3 -67.2 625.2 -67.9 L 625.2 -67.9 L 625.2 -67.9 Q 626.1 -68.6 626.8 -70.2 L 626.8 -70.2 L 626.8 -70.2 Q 628.1 -73.2 629.1 -78.7 L 629.1 -78.7 L 629.1 -78.7 Q 630.1 -84.1 630.2 -86.5 L 630.2 -86.5 L 630.2 -86.5 Q 630.3 -88.9 630.3 -90.6 L 630.3 -90.6 L 630.3 -90.6 Q 630.3 -92.4 629.8 -93.5 L 629.8 -93.5 L 629.8 -93.5 Q 629.3 -94.7 627.9 -94.7 L 627.9 -94.7 L 627.9 -94.7 Q 626.4 -94.7 625.5 -93.8 L 625.5 -93.8 L 625.5 -93.8 Q 624.5 -92.9 623.7 -91.2 Z M 692 -63.3 L 692 -63.3 L 692 -63.3 Q 684.3 -63.3 684.3 -69.3 L 684.3 -69.3 L 684.3 -69.3 Q 684.3 -72 685.4 -77 L 685.4 -77 L 685.4 -77 Q 686.5 -82.1 686.9 -84.2 L 686.9 -84.2 L 686.9 -84.2 Q 687.8 -88.9 687.8 -90.3 L 687.8 -90.3 L 687.8 -90.3 Q 687.8 -93.6 685.4 -93.6 L 685.4 -93.6 L 685.4 -93.6 Q 683.8 -93.6 682.2 -91.4 L 682.2 -91.4 L 682.2 -91.4 Q 680.7 -89.2 680 -84.8 L 680 -84.8 L 676 -64.6 L 663.6 -63.3 L 667 -80.7 L 667 -80.7 Q 667.6 -83.6 668.1 -86.9 L 668.1 -86.9 L 668.1 -86.9 Q 668.6 -90.1 668.6 -90.7 L 668.6 -90.7 L 668.6 -90.7 Q 668.6 -93.6 666.4 -93.6 L 666.4 -93.6 L 666.4 -93.6 Q 665 -93.6 663.4 -91.4 L 663.4 -91.4 L 663.4 -91.4 Q 661.8 -89.2 660.9 -84.8 L 660.9 -84.8 L 657 -64.6 L 644.4 -63.3 L 651.1 -97.2 L 661.5 -98.5 L 660.4 -92.1 L 660.4 -92.1 Q 662.1 -95.5 665.1 -97 L 665.1 -97 L 665.1 -97 Q 668.2 -98.5 673 -98.5 L 673 -98.5 L 673 -98.5 Q 675.8 -98.5 677.6 -97.2 L 677.6 -97.2 L 677.6 -97.2 Q 679.4 -95.8 679.9 -93.7 L 679.9 -93.7 L 679.9 -93.7 Q 681 -95.9 683.8 -97.2 L 683.8 -97.2 L 683.8 -97.2 Q 686.6 -98.5 690 -98.5 L 690 -98.5 L 690 -98.5 Q 693.4 -98.5 695.1 -97.8 L 695.1 -97.8 L 695.1 -97.8 Q 696.8 -97.1 697.9 -95.8 L 697.9 -95.8 L 697.9 -95.8 Q 699.6 -93.6 699.6 -89.5 L 699.6 -89.5 L 699.6 -89.5 Q 699.6 -85.5 697.9 -77.1 L 697.9 -77.1 L 697.9 -77.1 Q 697 -73 697 -71.5 L 697 -71.5 L 697 -71.5 Q 697 -70 697.8 -69.1 L 697.8 -69.1 L 697.8 -69.1 Q 698.7 -68.2 700 -68.1 L 700 -68.1 L 700 -68.1 Q 699.3 -65.9 697.1 -64.6 L 697.1 -64.6 L 697.1 -64.6 Q 694.9 -63.3 692 -63.3 Z M 719.3 -74.1 L 719.3 -74.1 L 719.3 -74.1 Q 719.3 -76.6 719.9 -79.8 L 719.9 -79.8 L 725.1 -106.8 L 739.3 -106.8 L 734.1 -79.6 L 734.1 -79.6 Q 733.6 -76.6 733.6 -74.4 L 733.6 -74.4 L 733.6 -74.4 Q 733.6 -72.1 734.5 -71 L 734.5 -71 L 734.5 -71 Q 735.4 -69.9 737.1 -69.9 L 737.1 -69.9 L 737.1 -69.9 Q 738.9 -69.9 740 -70.3 L 740 -70.3 L 740 -70.3 Q 741.1 -70.7 742 -71.8 L 742 -71.8 L 742 -71.8 Q 743.7 -74 744.8 -79.6 L 744.8 -79.6 L 750 -106.8 L 759.6 -106.8 L 754.5 -79.6 L 754.5 -79.6 Q 752.7 -70.6 747.8 -66.9 L 747.8 -66.9 L 747.8 -66.9 Q 743 -63.3 733.5 -63.3 L 733.5 -63.3 L 733.5 -63.3 Q 726.4 -63.3 722.6 -66.4 L 722.6 -66.4 L 722.6 -66.4 Q 719.3 -69.1 719.3 -74.1 Z M 788 -63.3 L 788 -63.3 L 788 -63.3 Q 780.2 -63.3 780.2 -69.3 L 780.2 -69.3 L 780.2 -69.3 Q 780.3 -71 780.8 -73.8 L 780.8 -73.8 L 782 -79.7 L 782 -79.7 Q 783.7 -88 783.7 -89.9 L 783.7 -89.9 L 783.7 -89.9 Q 783.7 -93.6 781.5 -93.6 L 781.5 -93.6 L 781.5 -93.6 Q 777.9 -93.6 775.9 -84.1 L 775.9 -84.1 L 772.2 -64.6 L 759.3 -63.3 L 766 -97.3 L 776.5 -98.5 L 775.4 -92.2 L 775.4 -92.2 Q 778.4 -98.5 787.6 -98.5 L 787.6 -98.5 L 787.6 -98.5 Q 792.1 -98.5 794 -96.6 L 794 -96.6 L 794 -96.6 Q 795.9 -94.7 795.9 -90.5 L 795.9 -90.5 L 795.9 -90.5 Q 795.9 -86.5 793.9 -77.3 L 793.9 -77.3 L 793.9 -77.3 Q 792.9 -73.1 792.9 -71.5 L 792.9 -71.5 L 792.9 -71.5 Q 792.9 -70 793.8 -69.1 L 793.8 -69.1 L 793.8 -69.1 Q 794.6 -68.2 795.9 -68.1 L 795.9 -68.1 L 795.9 -68.1 Q 795.3 -65.9 793.1 -64.6 L 793.1 -64.6 L 793.1 -64.6 Q 790.9 -63.3 788 -63.3 Z M 820.2 -87.1 L 820.2 -87.1 L 820.2 -87.1 Q 821.1 -89.4 821.1 -91.5 L 821.1 -91.5 L 821.1 -91.5 Q 821.1 -95.3 818 -95.3 L 818 -95.3 L 818 -95.3 Q 816.4 -95.3 815.1 -93.8 L 815.1 -93.8 L 815.1 -93.8 Q 813.8 -92.4 813.8 -90.6 L 813.8 -90.6 L 813.8 -90.6 Q 813.8 -89.3 814.8 -88.3 L 814.8 -88.3 L 814.8 -88.3 Q 816.3 -86.9 820 -84.6 L 820 -84.6 L 820 -84.6 Q 823.8 -82.3 825.2 -80.4 L 825.2 -80.4 L 825.2 -80.4 Q 826.7 -78.5 826.7 -75.9 L 826.7 -75.9 L 826.7 -75.9 Q 826.7 -73.3 825.4 -70.9 L 825.4 -70.9 L 825.4 -70.9 Q 824.2 -68.6 822 -66.9 L 822 -66.9 L 822 -66.9 Q 817.1 -63.3 809.5 -63.3 L 809.5 -63.3 L 809.5 -63.3 Q 805.3 -63.3 802.1 -65.5 L 802.1 -65.5 L 802.1 -65.5 Q 798.9 -67.6 798.9 -70.1 L 798.9 -70.1 L 798.9 -70.1 Q 798.9 -72.6 800.7 -74.1 L 800.7 -74.1 L 800.7 -74.1 Q 802.6 -75.5 805.2 -75.5 L 805.2 -75.5 L 805.2 -75.5 Q 807.9 -75.5 809.6 -74.5 L 809.6 -74.5 L 809.6 -74.5 Q 808.8 -72.4 808.8 -71 L 808.8 -71 L 808.8 -71 Q 808.8 -66.8 812.4 -66.8 L 812.4 -66.8 L 812.4 -66.8 Q 813.9 -66.8 814.9 -67.7 L 814.9 -67.7 L 814.9 -67.7 Q 815.9 -68.7 815.9 -70.4 L 815.9 -70.4 L 815.9 -70.4 Q 815.9 -73.6 810.4 -77.1 L 810.4 -77.1 L 810.4 -77.1 Q 806 -80 804.9 -81.2 L 804.9 -81.2 L 804.9 -81.2 Q 803.2 -83.2 803.2 -85.8 L 803.2 -85.8 L 803.2 -85.8 Q 803.2 -88.3 804.4 -90.8 L 804.4 -90.8 L 804.4 -90.8 Q 805.6 -93.2 807.9 -94.9 L 807.9 -94.9 L 807.9 -94.9 Q 812.5 -98.5 820.7 -98.5 L 820.7 -98.5 L 820.7 -98.5 Q 824.8 -98.5 827.3 -96.9 L 827.3 -96.9 L 827.3 -96.9 Q 829.8 -95.2 829.8 -92.4 L 829.8 -92.4 L 829.8 -92.4 Q 829.8 -89.6 828.1 -88 L 828.1 -88 L 828.1 -88 Q 826.4 -86.4 823.3 -86.4 L 823.3 -86.4 L 823.3 -86.4 Q 821.2 -86.4 820.2 -87.1 Z M 862 -69 L 862 -69 L 862 -69 Q 859.3 -66.3 855.6 -64.8 L 855.6 -64.8 L 855.6 -64.8 Q 851.9 -63.3 848.3 -63.3 L 848.3 -63.3 L 848.3 -63.3 Q 844.6 -63.3 843.3 -64 L 843.3 -64 L 841.3 -53.1 L 828.4 -51.8 L 837.2 -97.2 L 847.6 -98.3 L 846.8 -93.9 L 846.8 -93.9 Q 849.5 -98.5 855 -98.5 L 855 -98.5 L 855 -98.5 Q 861.3 -98.5 864.6 -94.4 L 864.6 -94.4 L 864.6 -94.4 Q 867.6 -90.8 867.6 -85.2 L 867.6 -85.2 L 867.6 -85.2 Q 867.6 -79.6 866.1 -75.7 L 866.1 -75.7 L 866.1 -75.7 Q 864.6 -71.7 862 -69 Z M 847.5 -86.9 L 844.1 -68.2 L 844.1 -68.2 Q 845.4 -67 847.1 -67 L 847.1 -67 L 847.1 -67 Q 848.8 -67 849.7 -67.7 L 849.7 -67.7 L 849.7 -67.7 Q 850.7 -68.3 851.4 -69.6 L 851.4 -69.6 L 851.4 -69.6 Q 853.3 -73 854.9 -83.5 L 854.9 -83.5 L 854.9 -83.5 Q 855.3 -86.6 855.3 -89.6 L 855.3 -89.6 L 855.3 -89.6 Q 855.3 -92.6 854.6 -93.6 L 854.6 -93.6 L 854.6 -93.6 Q 854 -94.5 852.7 -94.5 L 852.7 -94.5 L 852.7 -94.5 Q 848.8 -94.5 847.5 -86.9 L 847.5 -86.9 Z M 886.7 -68.1 L 886.7 -68.1 L 886.7 -68.1 Q 884.7 -63.3 878.4 -63.3 L 878.4 -63.3 L 878.4 -63.3 Q 875.2 -63.3 873.1 -65.6 L 873.1 -65.6 L 873.1 -65.6 Q 871.5 -67.4 871.5 -69.5 L 871.5 -69.5 L 871.5 -69.5 Q 871.5 -74.3 873.7 -84.8 L 873.7 -84.8 L 878.4 -109.4 L 891.4 -110.7 L 885.2 -78.3 L 885.2 -78.3 Q 884.1 -73.6 884.1 -71.9 L 884.1 -71.9 L 884.1 -71.9 Q 884.1 -68.2 886.7 -68.1 Z M 894.9 -66.5 L 894.9 -66.5 L 894.9 -66.5 Q 893.4 -68.2 892.8 -70.8 L 892.8 -70.8 L 892.8 -70.8 Q 892.1 -73.4 892.1 -77.7 L 892.1 -77.7 L 892.1 -77.7 Q 892.1 -82 893.6 -85.9 L 893.6 -85.9 L 893.6 -85.9 Q 895 -89.8 897.7 -92.6 L 897.7 -92.6 L 897.7 -92.6 Q 903.2 -98.5 912.3 -98.5 L 912.3 -98.5 L 912.3 -98.5 Q 915.6 -98.5 918 -97.4 L 918 -97.4 L 928.9 -98.5 L 924.2 -73.6 L 924.2 -73.6 Q 924 -72.8 924 -71.4 L 924 -71.4 L 924 -71.4 Q 924 -70 924.8 -69.1 L 924.8 -69.1 L 924.8 -69.1 Q 925.7 -68.2 927 -68.1 L 927 -68.1 L 927 -68.1 Q 926.3 -65.9 924 -64.6 L 924 -64.6 L 924 -64.6 Q 921.7 -63.3 919 -63.3 L 919 -63.3 L 919 -63.3 Q 916.4 -63.3 914.7 -64.3 L 914.7 -64.3 L 914.7 -64.3 Q 912.9 -65.3 912.4 -67 L 912.4 -67 L 912.4 -67 Q 911.4 -65.4 909.2 -64.3 L 909.2 -64.3 L 909.2 -64.3 Q 907 -63.3 904.1 -63.3 L 904.1 -63.3 L 904.1 -63.3 Q 901.2 -63.3 898.8 -64.1 L 898.8 -64.1 L 898.8 -64.1 Q 896.5 -64.9 894.9 -66.5 Z M 908.5 -92.5 L 908.5 -92.5 L 908.5 -92.5 Q 907.7 -91.4 907.1 -89.4 L 907.1 -89.4 L 907.1 -89.4 Q 906.4 -87.5 905.4 -82.2 L 905.4 -82.2 L 905.4 -82.2 Q 904.3 -77 904.3 -73.3 L 904.3 -73.3 L 904.3 -73.3 Q 904.3 -69.6 904.9 -68.5 L 904.9 -68.5 L 904.9 -68.5 Q 905.5 -67.4 906.5 -67.4 L 906.5 -67.4 L 906.5 -67.4 Q 908.5 -67.4 910.1 -69.4 L 910.1 -69.4 L 910.1 -69.4 Q 911.6 -71.3 912.1 -74.8 L 912.1 -74.8 L 915.5 -93.5 L 915.5 -93.5 Q 914.2 -94.7 912.6 -94.7 L 912.6 -94.7 L 912.6 -94.7 Q 911 -94.7 910.1 -94.2 L 910.1 -94.2 L 910.1 -94.2 Q 909.2 -93.7 908.5 -92.5 Z M 951.5 -87.1 L 951.5 -87.1 L 951.5 -87.1 Q 952.4 -89.4 952.4 -91.5 L 952.4 -91.5 L 952.4 -91.5 Q 952.4 -95.3 949.3 -95.3 L 949.3 -95.3 L 949.3 -95.3 Q 947.7 -95.3 946.4 -93.8 L 946.4 -93.8 L 946.4 -93.8 Q 945.1 -92.4 945.1 -90.6 L 945.1 -90.6 L 945.1 -90.6 Q 945.1 -89.3 946.1 -88.3 L 946.1 -88.3 L 946.1 -88.3 Q 947.6 -86.9 951.4 -84.6 L 951.4 -84.6 L 951.4 -84.6 Q 955.1 -82.3 956.6 -80.4 L 956.6 -80.4 L 956.6 -80.4 Q 958 -78.5 958 -75.9 L 958 -75.9 L 958 -75.9 Q 958 -73.3 956.8 -70.9 L 956.8 -70.9 L 956.8 -70.9 Q 955.5 -68.6 953.3 -66.9 L 953.3 -66.9 L 953.3 -66.9 Q 948.5 -63.3 940.8 -63.3 L 940.8 -63.3 L 940.8 -63.3 Q 936.6 -63.3 933.4 -65.5 L 933.4 -65.5 L 933.4 -65.5 Q 930.2 -67.6 930.2 -70.1 L 930.2 -70.1 L 930.2 -70.1 Q 930.2 -72.6 932.1 -74.1 L 932.1 -74.1 L 932.1 -74.1 Q 933.9 -75.5 936.6 -75.5 L 936.6 -75.5 L 936.6 -75.5 Q 939.3 -75.5 940.9 -74.5 L 940.9 -74.5 L 940.9 -74.5 Q 940.1 -72.4 940.1 -71 L 940.1 -71 L 940.1 -71 Q 940.1 -66.8 943.7 -66.8 L 943.7 -66.8 L 943.7 -66.8 Q 945.2 -66.8 946.2 -67.7 L 946.2 -67.7 L 946.2 -67.7 Q 947.3 -68.7 947.3 -70.4 L 947.3 -70.4 L 947.3 -70.4 Q 947.3 -73.6 941.8 -77.1 L 941.8 -77.1 L 941.8 -77.1 Q 937.3 -80 936.3 -81.2 L 936.3 -81.2 L 936.3 -81.2 Q 934.5 -83.2 934.5 -85.8 L 934.5 -85.8 L 934.5 -85.8 Q 934.5 -88.3 935.7 -90.8 L 935.7 -90.8 L 935.7 -90.8 Q 937 -93.2 939.2 -94.9 L 939.2 -94.9 L 939.2 -94.9 Q 943.9 -98.5 952 -98.5 L 952 -98.5 L 952 -98.5 Q 956.2 -98.5 958.6 -96.9 L 958.6 -96.9 L 958.6 -96.9 Q 961.1 -95.2 961.1 -92.4 L 961.1 -92.4 L 961.1 -92.4 Q 961.1 -89.6 959.4 -88 L 959.4 -88 L 959.4 -88 Q 957.7 -86.4 954.6 -86.4 L 954.6 -86.4 L 954.6 -86.4 Q 952.5 -86.4 951.5 -87.1 Z M 995.6 -71.7 L 995.6 -71.7 L 995.6 -71.7 Q 995.6 -68.9 998.5 -68.1 L 998.5 -68.1 L 998.5 -68.1 Q 997.8 -65.7 995.1 -64.4 L 995.1 -64.4 L 995.1 -64.4 Q 992.8 -63.3 990.2 -63.3 L 990.2 -63.3 L 990.2 -63.3 Q 987.7 -63.3 986.4 -64 L 986.4 -64 L 986.4 -64 Q 985.1 -64.7 984.4 -65.7 L 984.4 -65.7 L 984.4 -65.7 Q 983.2 -67.4 983.2 -70.6 L 983.2 -70.6 L 983.2 -70.6 Q 983.2 -72.4 984.3 -77.5 L 984.3 -77.5 L 985.1 -82.4 L 985.1 -82.4 Q 986.2 -88 986.2 -90 L 986.2 -90 L 986.2 -90 Q 986.2 -93.6 984.3 -93.6 L 984.3 -93.6 L 984.3 -93.6 Q 981.8 -93.6 980.2 -89.9 L 980.2 -89.9 L 980.2 -89.9 Q 979.5 -88.5 979.1 -86.4 L 979.1 -86.4 L 974.7 -64.6 L 961.9 -63.3 L 970.9 -109.4 L 983.7 -110.7 L 983.2 -108.1 L 983.2 -108.1 Q 981.4 -98.3 979.9 -94.9 L 979.9 -94.9 L 979.9 -94.9 Q 983.5 -98.5 990.1 -98.5 L 990.1 -98.5 L 990.1 -98.5 Q 997.1 -98.5 998.3 -93.9 L 998.3 -93.9 L 998.3 -93.9 Q 998.8 -92.4 998.8 -91.2 L 998.8 -91.2 L 998.8 -91.2 Q 998.8 -89.9 998.7 -88.9 L 998.7 -88.9 L 998.7 -88.9 Q 998.6 -87.9 998.3 -86.1 L 998.3 -86.1 L 997.4 -81.5 L 996 -74.3 L 996 -74.3 Q 995.6 -72.8 995.6 -71.7 Z M 1045 -63.3 L 1045 -63.3 L 1045 -63.3 Q 1036.8 -63.3 1036 -75 L 1036 -75 L 1025 -75 L 1025 -75 Q 1023.7 -72 1022.9 -69.5 L 1022.9 -69.5 L 1021.2 -64.6 L 1012.2 -64.6 L 1032.4 -106.8 L 1046.1 -106.8 L 1048.8 -75.7 L 1048.8 -75.7 Q 1049.5 -69 1052 -67 L 1052 -67 L 1052 -67 Q 1050.2 -63.3 1045 -63.3 Z M 1030.5 -87.8 L 1027 -79.6 L 1035.8 -79.6 L 1035.1 -96.1 L 1035.1 -97.8 L 1030.5 -87.8 Z M 1080.8 -107.3 L 1080.8 -107.3 L 1080.8 -107.3 Q 1096.4 -107.3 1096.4 -96.2 L 1096.4 -96.2 L 1096.4 -96.2 Q 1096.4 -90.1 1092.5 -86.5 L 1092.5 -86.5 L 1092.5 -86.5 Q 1088.7 -82.8 1082 -82.8 L 1082 -82.8 L 1082 -82.8 Q 1078.9 -82.8 1076.4 -84.6 L 1076.4 -84.6 L 1076.4 -84.6 Q 1075.3 -85.4 1074.5 -86.4 L 1074.5 -86.4 L 1074.5 -86.4 Q 1079.2 -86.4 1081.6 -89.3 L 1081.6 -89.3 L 1081.6 -89.3 Q 1084.1 -92.1 1084.1 -97.7 L 1084.1 -97.7 L 1084.1 -97.7 Q 1084.1 -103.3 1078.6 -103.3 L 1078.6 -103.3 L 1077.1 -103.3 L 1077.1 -103.3 Q 1076.7 -103.3 1076.4 -103.2 L 1076.4 -103.2 L 1069 -64.6 L 1055.1 -64.6 L 1063 -106.5 L 1063 -106.5 Q 1069.8 -107.2 1073.8 -107.2 L 1073.8 -107.2 L 1073.8 -107.2 Q 1077.8 -107.3 1080.8 -107.3 Z M 1110 -64.6 L 1096.1 -64.6 L 1104.2 -106.8 L 1118.3 -106.8 L 1110 -64.6 Z" fill="url(#editing-shiny-gradient)"></path></g></g><g filter="url(#editing-shiny2)"><g transform="matrix(1.2,0,0,2,-407.1,242.5)"><path d="M -59.7 -104.3 L -73.6 -104.3 L -65.5 -146.5 L -51.4 -146.5 L -59.7 -104.3 Z M -3.9 -103 L -3.9 -103 L -3.9 -103 Q -11.7 -103 -11.7 -109 L -11.7 -109 L -11.7 -109 Q -11.7 -111.7 -10.5 -116.7 L -10.5 -116.7 L -10.5 -116.7 Q -9.4 -121.8 -9 -123.9 L -9 -123.9 L -9 -123.9 Q -8.1 -128.6 -8.1 -130 L -8.1 -130 L -8.1 -130 Q -8.1 -133.3 -10.6 -133.3 L -10.6 -133.3 L -10.6 -133.3 Q -12.2 -133.3 -13.7 -131.1 L -13.7 -131.1 L -13.7 -131.1 Q -15.2 -128.9 -16 -124.5 L -16 -124.5 L -19.9 -104.3 L -32.4 -103 L -28.9 -120.4 L -28.9 -120.4 Q -28.4 -123.3 -27.9 -126.6 L -27.9 -126.6 L -27.9 -126.6 Q -27.3 -129.8 -27.3 -130.4 L -27.3 -130.4 L -27.3 -130.4 Q -27.3 -133.3 -29.5 -133.3 L -29.5 -133.3 L -29.5 -133.3 Q -31 -133.3 -32.6 -131.1 L -32.6 -131.1 L -32.6 -131.1 Q -34.2 -128.9 -35.1 -124.5 L -35.1 -124.5 L -39 -104.3 L -51.6 -103 L -44.9 -136.9 L -34.5 -138.2 L -35.5 -131.8 L -35.5 -131.8 Q -33.9 -135.2 -30.8 -136.7 L -30.8 -136.7 L -30.8 -136.7 Q -27.7 -138.2 -22.9 -138.2 L -22.9 -138.2 L -22.9 -138.2 Q -20.2 -138.2 -18.4 -136.9 L -18.4 -136.9 L -18.4 -136.9 Q -16.6 -135.5 -16 -133.4 L -16 -133.4 L -16 -133.4 Q -14.9 -135.6 -12.1 -136.9 L -12.1 -136.9 L -12.1 -136.9 Q -9.4 -138.2 -5.9 -138.2 L -5.9 -138.2 L -5.9 -138.2 Q -2.5 -138.2 -0.8 -137.5 L -0.8 -137.5 L -0.8 -137.5 Q 0.9 -136.8 1.9 -135.5 L 1.9 -135.5 L 1.9 -135.5 Q 3.6 -133.3 3.6 -129.2 L 3.6 -129.2 L 3.6 -129.2 Q 3.6 -125.2 1.9 -116.8 L 1.9 -116.8 L 1.9 -116.8 Q 1 -112.7 1 -111.2 L 1 -111.2 L 1 -111.2 Q 1 -109.7 1.9 -108.8 L 1.9 -108.8 L 1.9 -108.8 Q 2.7 -107.9 4 -107.8 L 4 -107.8 L 4 -107.8 Q 3.4 -105.6 1.2 -104.3 L 1.2 -104.3 L 1.2 -104.3 Q -1 -103 -3.9 -103 Z M 11.7 -106.2 L 11.7 -106.2 L 11.7 -106.2 Q 10.2 -107.9 9.5 -110.5 L 9.5 -110.5 L 9.5 -110.5 Q 8.9 -113.1 8.9 -117.4 L 8.9 -117.4 L 8.9 -117.4 Q 8.9 -121.7 10.3 -125.6 L 10.3 -125.6 L 10.3 -125.6 Q 11.8 -129.5 14.5 -132.3 L 14.5 -132.3 L 14.5 -132.3 Q 20 -138.2 29.1 -138.2 L 29.1 -138.2 L 29.1 -138.2 Q 32.4 -138.2 34.7 -137.1 L 34.7 -137.1 L 45.7 -138.2 L 40.9 -113.3 L 40.9 -113.3 Q 40.8 -112.5 40.8 -111.1 L 40.8 -111.1 L 40.8 -111.1 Q 40.8 -109.7 41.6 -108.8 L 41.6 -108.8 L 41.6 -108.8 Q 42.5 -107.9 43.8 -107.8 L 43.8 -107.8 L 43.8 -107.8 Q 43.1 -105.6 40.8 -104.3 L 40.8 -104.3 L 40.8 -104.3 Q 38.5 -103 35.8 -103 L 35.8 -103 L 35.8 -103 Q 33.2 -103 31.4 -104 L 31.4 -104 L 31.4 -104 Q 29.7 -105 29.2 -106.7 L 29.2 -106.7 L 29.2 -106.7 Q 28.1 -105.1 26 -104 L 26 -104 L 26 -104 Q 23.8 -103 20.9 -103 L 20.9 -103 L 20.9 -103 Q 18 -103 15.6 -103.8 L 15.6 -103.8 L 15.6 -103.8 Q 13.2 -104.6 11.7 -106.2 Z M 25.2 -132.2 L 25.2 -132.2 L 25.2 -132.2 Q 24.5 -131.1 23.9 -129.1 L 23.9 -129.1 L 23.9 -129.1 Q 23.2 -127.2 22.2 -121.9 L 22.2 -121.9 L 22.2 -121.9 Q 21.1 -116.7 21.1 -113 L 21.1 -113 L 21.1 -113 Q 21.1 -109.3 21.7 -108.2 L 21.7 -108.2 L 21.7 -108.2 Q 22.3 -107.1 23.3 -107.1 L 23.3 -107.1 L 23.3 -107.1 Q 25.3 -107.1 26.8 -109.1 L 26.8 -109.1 L 26.8 -109.1 Q 28.3 -111 28.9 -114.5 L 28.9 -114.5 L 32.3 -133.2 L 32.3 -133.2 Q 31 -134.4 29.4 -134.4 L 29.4 -134.4 L 29.4 -134.4 Q 27.8 -134.4 26.9 -133.9 L 26.9 -133.9 L 26.9 -133.9 Q 26 -133.4 25.2 -132.2 Z M 53.4 -131.1 L 53.4 -131.1 L 53.4 -131.1 Q 55.6 -134.1 58.9 -136.2 L 58.9 -136.2 L 58.9 -136.2 Q 62.2 -138.2 66.2 -138.2 L 66.2 -138.2 L 66.2 -138.2 Q 70.3 -138.2 72.2 -136.9 L 72.2 -136.9 L 84.7 -138.2 L 80.4 -113.6 L 80.4 -113.6 Q 78.1 -101.1 73.4 -96.2 L 73.4 -96.2 L 73.4 -96.2 Q 68.8 -91.5 60 -91.5 L 60 -91.5 L 60 -91.5 Q 53.3 -91.5 49.5 -93.6 L 49.5 -93.6 L 49.5 -93.6 Q 45.6 -95.7 45.6 -99.2 L 45.6 -99.2 L 45.6 -99.2 Q 45.6 -101.9 47.6 -103.4 L 47.6 -103.4 L 47.6 -103.4 Q 49.6 -104.9 52.7 -104.9 L 52.7 -104.9 L 52.7 -104.9 Q 55.3 -104.9 57.4 -103.7 L 57.4 -103.7 L 57.4 -103.7 Q 58.6 -103 59.2 -102.1 L 59.2 -102.1 L 59.2 -102.1 Q 57.7 -100.8 57.7 -98.7 L 57.7 -98.7 L 57.7 -98.7 Q 57.7 -96 60.3 -96 L 60.3 -96 L 60.3 -96 Q 64.6 -96 67 -106.1 L 67 -106.1 L 67 -106.1 Q 67.7 -108.8 68.3 -111.6 L 68.3 -111.6 L 68.3 -111.6 Q 65.4 -108.1 58.9 -108.1 L 58.9 -108.1 L 58.9 -108.1 Q 54.3 -108.1 51.7 -110.3 L 51.7 -110.3 L 51.7 -110.3 Q 49.1 -112.4 49.1 -117.6 L 49.1 -117.6 L 49.1 -117.6 Q 49.1 -120.7 50.2 -124.4 L 50.2 -124.4 L 50.2 -124.4 Q 51.3 -128 53.4 -131.1 Z M 61.7 -117.4 L 61.7 -117.4 L 61.7 -117.4 Q 61.7 -113 64 -113 L 64 -113 L 64 -113 Q 65.5 -113 67 -114.7 L 67 -114.7 L 67 -114.7 Q 68.1 -116 68.6 -118 L 68.6 -118 L 71.9 -134.4 L 71.9 -134.4 Q 71.5 -134.5 71.2 -134.6 L 71.2 -134.6 L 71.2 -134.6 Q 70.6 -134.9 69.7 -134.9 L 69.7 -134.9 L 69.7 -134.9 Q 65.8 -134.9 63.5 -128.5 L 63.5 -128.5 L 63.5 -128.5 Q 61.7 -123.5 61.7 -117.4 Z M 113.1 -115.1 L 113.1 -115.1 L 113.1 -115.1 Q 114.7 -114 114.7 -111.6 L 114.7 -111.6 L 114.7 -111.6 Q 114.7 -109.2 113.5 -107.7 L 113.5 -107.7 L 113.5 -107.7 Q 112.3 -106.2 110.3 -105.1 L 110.3 -105.1 L 110.3 -105.1 Q 106.2 -103 101.8 -103 L 101.8 -103 L 101.8 -103 Q 97.4 -103 94.8 -104 L 94.8 -104 L 94.8 -104 Q 92.2 -104.9 90.5 -106.7 L 90.5 -106.7 L 90.5 -106.7 Q 87.1 -110.1 87.1 -116.3 L 87.1 -116.3 L 87.1 -116.3 Q 87.1 -126 92.3 -131.9 L 92.3 -131.9 L 92.3 -131.9 Q 98 -138.2 107.8 -138.2 L 107.8 -138.2 L 107.8 -138.2 Q 113.8 -138.2 116.8 -135.7 L 116.8 -135.7 L 116.8 -135.7 Q 119.1 -133.7 119.1 -130.6 L 119.1 -130.6 L 119.1 -130.6 Q 119.1 -119.3 99.6 -119.3 L 99.6 -119.3 L 99.6 -119.3 Q 99.4 -117.7 99.4 -116.3 L 99.4 -116.3 L 99.4 -116.3 Q 99.4 -113.3 100.7 -112.2 L 100.7 -112.2 L 100.7 -112.2 Q 102 -111.1 104.4 -111.1 L 104.4 -111.1 L 104.4 -111.1 Q 106.9 -111.1 109.5 -112.2 L 109.5 -112.2 L 109.5 -112.2 Q 112.1 -113.3 113.1 -115.1 Z M 100.1 -122.1 L 100.1 -122.1 L 100.1 -122.1 Q 104.6 -122.1 107.3 -124.9 L 107.3 -124.9 L 107.3 -124.9 Q 109.9 -127.6 109.9 -131.9 L 109.9 -131.9 L 109.9 -131.9 Q 109.9 -133.4 109.3 -134.2 L 109.3 -134.2 L 109.3 -134.2 Q 108.8 -135 107.7 -135 L 107.7 -135 L 107.7 -135 Q 106.6 -135 105.7 -134.5 L 105.7 -134.5 L 105.7 -134.5 Q 104.8 -134.1 103.8 -132.7 L 103.8 -132.7 L 103.8 -132.7 Q 101.4 -129.5 100.1 -122.1 Z M 140.4 -126.8 L 140.4 -126.8 L 140.4 -126.8 Q 141.3 -129.1 141.3 -131.2 L 141.3 -131.2 L 141.3 -131.2 Q 141.3 -135 138.2 -135 L 138.2 -135 L 138.2 -135 Q 136.6 -135 135.3 -133.5 L 135.3 -133.5 L 135.3 -133.5 Q 134 -132.1 134 -130.3 L 134 -130.3 L 134 -130.3 Q 134 -129 135 -128 L 135 -128 L 135 -128 Q 136.5 -126.6 140.3 -124.3 L 140.3 -124.3 L 140.3 -124.3 Q 144.1 -122 145.5 -120.1 L 145.5 -120.1 L 145.5 -120.1 Q 146.9 -118.2 146.9 -115.6 L 146.9 -115.6 L 146.9 -115.6 Q 146.9 -113 145.7 -110.6 L 145.7 -110.6 L 145.7 -110.6 Q 144.4 -108.3 142.2 -106.6 L 142.2 -106.6 L 142.2 -106.6 Q 137.4 -103 129.7 -103 L 129.7 -103 L 129.7 -103 Q 125.6 -103 122.3 -105.2 L 122.3 -105.2 L 122.3 -105.2 Q 119.2 -107.3 119.2 -109.8 L 119.2 -109.8 L 119.2 -109.8 Q 119.2 -112.3 121 -113.8 L 121 -113.8 L 121 -113.8 Q 122.8 -115.2 125.5 -115.2 L 125.5 -115.2 L 125.5 -115.2 Q 128.2 -115.2 129.8 -114.2 L 129.8 -114.2 L 129.8 -114.2 Q 129 -112.1 129 -110.7 L 129 -110.7 L 129 -110.7 Q 129 -106.5 132.6 -106.5 L 132.6 -106.5 L 132.6 -106.5 Q 134.1 -106.5 135.2 -107.4 L 135.2 -107.4 L 135.2 -107.4 Q 136.2 -108.4 136.2 -110.1 L 136.2 -110.1 L 136.2 -110.1 Q 136.2 -113.3 130.7 -116.8 L 130.7 -116.8 L 130.7 -116.8 Q 126.2 -119.7 125.2 -120.9 L 125.2 -120.9 L 125.2 -120.9 Q 123.4 -122.9 123.4 -125.5 L 123.4 -125.5 L 123.4 -125.5 Q 123.4 -128 124.7 -130.5 L 124.7 -130.5 L 124.7 -130.5 Q 125.9 -132.9 128.1 -134.6 L 128.1 -134.6 L 128.1 -134.6 Q 132.8 -138.2 140.9 -138.2 L 140.9 -138.2 L 140.9 -138.2 Q 145.1 -138.2 147.5 -136.6 L 147.5 -136.6 L 147.5 -136.6 Q 150 -134.9 150 -132.1 L 150 -132.1 L 150 -132.1 Q 150 -129.3 148.3 -127.7 L 148.3 -127.7 L 148.3 -127.7 Q 146.6 -126.1 143.5 -126.1 L 143.5 -126.1 L 143.5 -126.1 Q 141.4 -126.1 140.4 -126.8 Z M 191.5 -124.9 L 204.4 -126.1 L 204.4 -126.1 Q 199.8 -116 199.8 -104.2 L 199.8 -104.2 L 199.8 -104.2 Q 198.1 -103 195.5 -103 L 195.5 -103 L 195.5 -103 Q 193 -103 191.4 -104.2 L 191.4 -104.2 L 191.4 -104.2 Q 189.8 -105.4 189.5 -106.6 L 189.5 -106.6 L 189.5 -106.6 Q 187.9 -104.9 185.3 -104 L 185.3 -104 L 185.3 -104 Q 182.7 -103 179.9 -103 L 179.9 -103 L 179.9 -103 Q 177.2 -103 174.8 -103.9 L 174.8 -103.9 L 174.8 -103.9 Q 172.4 -104.8 170.5 -106.8 L 170.5 -106.8 L 170.5 -106.8 Q 166.4 -111.1 166.4 -119.4 L 166.4 -119.4 L 166.4 -119.4 Q 166.4 -132.2 173.3 -139.9 L 173.3 -139.9 L 173.3 -139.9 Q 180.3 -147.8 192.8 -147.8 L 192.8 -147.8 L 192.8 -147.8 Q 201.5 -147.8 204.5 -143.3 L 204.5 -143.3 L 204.5 -143.3 Q 205.5 -141.9 205.5 -140.2 L 205.5 -140.2 L 205.5 -140.2 Q 205.5 -138.5 204.8 -137.1 L 204.8 -137.1 L 204.8 -137.1 Q 204 -135.7 202.9 -134.5 L 202.9 -134.5 L 202.9 -134.5 Q 200.1 -131.9 196.7 -131.9 L 196.7 -131.9 L 196.7 -131.9 Q 195.4 -131.9 194.1 -132.4 L 194.1 -132.4 L 194.1 -132.4 Q 194.4 -134.3 194.4 -136.6 L 194.4 -136.6 L 194.4 -136.6 Q 194.4 -138.8 194.2 -139.8 L 194.2 -139.8 L 194.2 -139.8 Q 194 -140.8 193.6 -141.7 L 193.6 -141.7 L 193.6 -141.7 Q 192.8 -143.4 191 -143.4 L 191 -143.4 L 191 -143.4 Q 189.2 -143.4 187.1 -141.4 L 187.1 -141.4 L 187.1 -141.4 Q 185.1 -139.5 183.5 -136.3 L 183.5 -136.3 L 183.5 -136.3 Q 180 -129.1 180 -120.5 L 180 -120.5 L 180 -120.5 Q 180 -116.5 181.6 -113.7 L 181.6 -113.7 L 181.6 -113.7 Q 183.2 -110.6 186.2 -110.6 L 186.2 -110.6 L 186.2 -110.6 Q 187.2 -110.6 188.1 -111.1 L 188.1 -111.1 L 188.1 -111.1 Q 189 -111.7 189.4 -112 L 189.4 -112 L 191.5 -124.9 Z M 210.3 -106.2 L 210.3 -106.2 L 210.3 -106.2 Q 208.8 -107.9 208.1 -110.5 L 208.1 -110.5 L 208.1 -110.5 Q 207.5 -113.1 207.5 -117.4 L 207.5 -117.4 L 207.5 -117.4 Q 207.5 -121.7 208.9 -125.6 L 208.9 -125.6 L 208.9 -125.6 Q 210.4 -129.5 213.1 -132.3 L 213.1 -132.3 L 213.1 -132.3 Q 218.6 -138.2 227.7 -138.2 L 227.7 -138.2 L 227.7 -138.2 Q 231 -138.2 233.3 -137.1 L 233.3 -137.1 L 244.3 -138.2 L 239.5 -113.3 L 239.5 -113.3 Q 239.3 -112.5 239.3 -111.1 L 239.3 -111.1 L 239.3 -111.1 Q 239.3 -109.7 240.2 -108.8 L 240.2 -108.8 L 240.2 -108.8 Q 241.1 -107.9 242.4 -107.8 L 242.4 -107.8 L 242.4 -107.8 Q 241.7 -105.6 239.4 -104.3 L 239.4 -104.3 L 239.4 -104.3 Q 237 -103 234.4 -103 L 234.4 -103 L 234.4 -103 Q 231.8 -103 230 -104 L 230 -104 L 230 -104 Q 228.3 -105 227.8 -106.7 L 227.8 -106.7 L 227.8 -106.7 Q 226.7 -105.1 224.6 -104 L 224.6 -104 L 224.6 -104 Q 222.4 -103 219.5 -103 L 219.5 -103 L 219.5 -103 Q 216.6 -103 214.2 -103.8 L 214.2 -103.8 L 214.2 -103.8 Q 211.8 -104.6 210.3 -106.2 Z M 223.8 -132.2 L 223.8 -132.2 L 223.8 -132.2 Q 223.1 -131.1 222.4 -129.1 L 222.4 -129.1 L 222.4 -129.1 Q 221.8 -127.2 220.8 -121.9 L 220.8 -121.9 L 220.8 -121.9 Q 219.7 -116.7 219.7 -113 L 219.7 -113 L 219.7 -113 Q 219.7 -109.3 220.3 -108.2 L 220.3 -108.2 L 220.3 -108.2 Q 220.9 -107.1 221.9 -107.1 L 221.9 -107.1 L 221.9 -107.1 Q 223.9 -107.1 225.4 -109.1 L 225.4 -109.1 L 225.4 -109.1 Q 226.9 -111 227.5 -114.5 L 227.5 -114.5 L 230.9 -133.2 L 230.9 -133.2 Q 229.6 -134.4 228 -134.4 L 228 -134.4 L 228 -134.4 Q 226.4 -134.4 225.5 -133.9 L 225.5 -133.9 L 225.5 -133.9 Q 224.6 -133.4 223.8 -132.2 Z M 263 -107.8 L 263 -107.8 L 263 -107.8 Q 261 -103 254.7 -103 L 254.7 -103 L 254.7 -103 Q 251.5 -103 249.5 -105.3 L 249.5 -105.3 L 249.5 -105.3 Q 247.8 -107.1 247.8 -109.2 L 247.8 -109.2 L 247.8 -109.2 Q 247.8 -114 250 -124.5 L 250 -124.5 L 254.7 -149.1 L 267.7 -150.4 L 261.5 -118 L 261.5 -118 Q 260.4 -113.3 260.4 -111.6 L 260.4 -111.6 L 260.4 -111.6 Q 260.4 -107.9 263 -107.8 Z M 283.8 -107.8 L 283.8 -107.8 L 283.8 -107.8 Q 281.8 -103 275.4 -103 L 275.4 -103 L 275.4 -103 Q 272.2 -103 270.2 -105.3 L 270.2 -105.3 L 270.2 -105.3 Q 268.5 -107.1 268.5 -109.2 L 268.5 -109.2 L 268.5 -109.2 Q 268.5 -114 270.8 -124.5 L 270.8 -124.5 L 275.4 -149.1 L 288.4 -150.4 L 282.2 -118 L 282.2 -118 Q 281.1 -113.3 281.1 -111.6 L 281.1 -111.6 L 281.1 -111.6 Q 281.1 -107.9 283.8 -107.8 Z M 315.1 -115.1 L 315.1 -115.1 L 315.1 -115.1 Q 316.7 -114 316.7 -111.6 L 316.7 -111.6 L 316.7 -111.6 Q 316.7 -109.2 315.5 -107.7 L 315.5 -107.7 L 315.5 -107.7 Q 314.3 -106.2 312.3 -105.1 L 312.3 -105.1 L 312.3 -105.1 Q 308.2 -103 303.8 -103 L 303.8 -103 L 303.8 -103 Q 299.4 -103 296.8 -104 L 296.8 -104 L 296.8 -104 Q 294.2 -104.9 292.5 -106.7 L 292.5 -106.7 L 292.5 -106.7 Q 289.1 -110.1 289.1 -116.3 L 289.1 -116.3 L 289.1 -116.3 Q 289.1 -126 294.3 -131.9 L 294.3 -131.9 L 294.3 -131.9 Q 299.9 -138.2 309.7 -138.2 L 309.7 -138.2 L 309.7 -138.2 Q 315.8 -138.2 318.8 -135.7 L 318.8 -135.7 L 318.8 -135.7 Q 321.1 -133.7 321.1 -130.6 L 321.1 -130.6 L 321.1 -130.6 Q 321.1 -119.3 301.6 -119.3 L 301.6 -119.3 L 301.6 -119.3 Q 301.4 -117.7 301.4 -116.3 L 301.4 -116.3 L 301.4 -116.3 Q 301.4 -113.3 302.7 -112.2 L 302.7 -112.2 L 302.7 -112.2 Q 304 -111.1 306.4 -111.1 L 306.4 -111.1 L 306.4 -111.1 Q 308.9 -111.1 311.4 -112.2 L 311.4 -112.2 L 311.4 -112.2 Q 314 -113.3 315.1 -115.1 Z M 302.1 -122.1 L 302.1 -122.1 L 302.1 -122.1 Q 306.6 -122.1 309.2 -124.9 L 309.2 -124.9 L 309.2 -124.9 Q 311.9 -127.6 311.9 -131.9 L 311.9 -131.9 L 311.9 -131.9 Q 311.9 -133.4 311.3 -134.2 L 311.3 -134.2 L 311.3 -134.2 Q 310.8 -135 309.7 -135 L 309.7 -135 L 309.7 -135 Q 308.6 -135 307.7 -134.5 L 307.7 -134.5 L 307.7 -134.5 Q 306.7 -134.1 305.8 -132.7 L 305.8 -132.7 L 305.8 -132.7 Q 303.4 -129.5 302.1 -122.1 Z M 343.3 -122.3 L 343.3 -122.3 L 343.3 -122.3 Q 345.6 -126.4 345.6 -130.5 L 345.6 -130.5 L 345.6 -130.5 Q 345.6 -133.3 343.6 -133.3 L 343.6 -133.3 L 343.6 -133.3 Q 342.1 -133.3 340.5 -130.7 L 340.5 -130.7 L 340.5 -130.7 Q 338.8 -128 338.3 -124.7 L 338.3 -124.7 L 335 -104.3 L 321.7 -103 L 328.2 -136.9 L 338.8 -138.2 L 337.6 -131.8 L 337.6 -131.8 Q 340.8 -138.2 347.8 -138.2 L 347.8 -138.2 L 347.8 -138.2 Q 351.5 -138.2 353.6 -136.3 L 353.6 -136.3 L 353.6 -136.3 Q 355.6 -134.4 355.6 -130.4 L 355.6 -130.4 L 355.6 -130.4 Q 355.6 -126.5 353 -124 L 353 -124 L 353 -124 Q 350.4 -121.5 346 -121.5 L 346 -121.5 L 346 -121.5 Q 344.1 -121.5 343.3 -122.3 Z M 376.9 -111.5 L 376.9 -111.5 L 376.9 -111.5 Q 373.6 -108.1 367.5 -108.1 L 367.5 -108.1 L 367.5 -108.1 Q 359.9 -108.1 358.3 -113.6 L 358.3 -113.6 L 358.3 -113.6 Q 357.8 -115.3 357.8 -117.2 L 357.8 -117.2 L 357.8 -117.2 Q 357.8 -119 358.2 -120.9 L 358.2 -120.9 L 361.2 -136.9 L 374.2 -138.2 L 370.7 -119.6 L 370.7 -119.6 Q 370.5 -118.8 370.4 -117.9 L 370.4 -117.9 L 370.4 -117.9 Q 370.2 -117 370.2 -116 L 370.2 -116 L 370.2 -116 Q 370.2 -115.1 370.5 -114.5 L 370.5 -114.5 L 370.5 -114.5 Q 370.8 -113.9 371.3 -113.5 L 371.3 -113.5 L 371.3 -113.5 Q 372 -113 373.4 -113 L 373.4 -113 L 373.4 -113 Q 374.8 -113 375.9 -114.7 L 375.9 -114.7 L 375.9 -114.7 Q 377.1 -116.3 377.7 -119.2 L 377.7 -119.2 L 381.2 -136.9 L 393.8 -138.2 L 389 -113.1 L 389 -113.1 Q 386.7 -100.8 381.8 -95.9 L 381.8 -95.9 L 381.8 -95.9 Q 379.3 -93.4 376.1 -92.4 L 376.1 -92.4 L 376.1 -92.4 Q 372.9 -91.4 368.7 -91.4 L 368.7 -91.4 L 368.7 -91.4 Q 362 -91.4 358.1 -93.5 L 358.1 -93.5 L 358.1 -93.5 Q 354.3 -95.7 354.3 -99.2 L 354.3 -99.2 L 354.3 -99.2 Q 354.3 -101.8 356.3 -103.3 L 356.3 -103.3 L 356.3 -103.3 Q 358.3 -104.8 361.3 -104.8 L 361.3 -104.8 L 361.3 -104.8 Q 364 -104.8 366.1 -103.7 L 366.1 -103.7 L 366.1 -103.7 Q 367.3 -103 367.9 -102.1 L 367.9 -102.1 L 367.9 -102.1 Q 366.4 -100.8 366.4 -98.7 L 366.4 -98.7 L 366.4 -98.7 Q 366.4 -95.9 368.9 -95.9 L 368.9 -95.9 L 368.9 -95.9 Q 373.2 -95.9 375.6 -105.6 L 375.6 -105.6 L 375.6 -105.6 Q 376.3 -108.5 376.9 -111.5 Z M 438.5 -138.2 L 438.5 -138.2 L 438.5 -138.2 Q 433.3 -138.2 429.5 -139.9 L 429.5 -139.9 L 427.4 -129.6 L 439.8 -129.6 L 439.8 -129.6 Q 439.8 -126.2 438.1 -124 L 438.1 -124 L 438.1 -124 Q 436.4 -121.9 433.3 -121.9 L 433.3 -121.9 L 433.3 -121.9 Q 430 -121.9 426.9 -123.1 L 426.9 -123.1 L 426.9 -123.1 Q 426.3 -123.4 426.2 -123.4 L 426.2 -123.4 L 422.6 -104.3 L 408.6 -104.3 L 416.8 -146.5 L 445.3 -146.5 L 445.3 -146.5 Q 445.3 -142.6 443.5 -140.4 L 443.5 -140.4 L 443.5 -140.4 Q 441.6 -138.2 438.5 -138.2 Z M 463.2 -122.3 L 463.2 -122.3 L 463.2 -122.3 Q 465.5 -126.4 465.5 -130.5 L 465.5 -130.5 L 465.5 -130.5 Q 465.5 -133.3 463.5 -133.3 L 463.5 -133.3 L 463.5 -133.3 Q 462 -133.3 460.4 -130.7 L 460.4 -130.7 L 460.4 -130.7 Q 458.7 -128 458.2 -124.7 L 458.2 -124.7 L 454.9 -104.3 L 441.6 -103 L 448.2 -136.9 L 458.7 -138.2 L 457.6 -131.8 L 457.6 -131.8 Q 460.7 -138.2 467.8 -138.2 L 467.8 -138.2 L 467.8 -138.2 Q 471.5 -138.2 473.5 -136.3 L 473.5 -136.3 L 473.5 -136.3 Q 475.5 -134.4 475.5 -130.4 L 475.5 -130.4 L 475.5 -130.4 Q 475.5 -126.5 472.9 -124 L 472.9 -124 L 472.9 -124 Q 470.3 -121.5 465.9 -121.5 L 465.9 -121.5 L 465.9 -121.5 Q 464 -121.5 463.2 -122.3 Z M 490.5 -103 L 490.5 -103 L 490.5 -103 Q 476.4 -103 476.4 -116.3 L 476.4 -116.3 L 476.4 -116.3 Q 476.4 -125.7 481.6 -131.8 L 481.6 -131.8 L 481.6 -131.8 Q 487.1 -138.2 496.6 -138.2 L 496.6 -138.2 L 496.6 -138.2 Q 503.5 -138.2 507.1 -135 L 507.1 -135 L 507.1 -135 Q 510.6 -131.8 510.6 -125.1 L 510.6 -125.1 L 510.6 -125.1 Q 510.6 -114.9 505.1 -108.9 L 505.1 -108.9 L 505.1 -108.9 Q 499.7 -103 490.5 -103 Z M 492.1 -130.9 L 492.1 -130.9 L 492.1 -130.9 Q 491.4 -129.1 490.8 -126.5 L 490.8 -126.5 L 490.8 -126.5 Q 490.2 -123.9 489.4 -119.9 L 489.4 -119.9 L 489.4 -119.9 Q 488.6 -115.8 488.6 -110.7 L 488.6 -110.7 L 488.6 -110.7 Q 488.6 -109 489.2 -107.9 L 489.2 -107.9 L 489.2 -107.9 Q 489.7 -106.9 491.2 -106.9 L 491.2 -106.9 L 491.2 -106.9 Q 492.7 -106.9 493.6 -107.6 L 493.6 -107.6 L 493.6 -107.6 Q 494.5 -108.3 495.2 -109.9 L 495.2 -109.9 L 495.2 -109.9 Q 496.5 -112.9 497.5 -118.4 L 497.5 -118.4 L 497.5 -118.4 Q 498.5 -123.8 498.6 -126.2 L 498.6 -126.2 L 498.6 -126.2 Q 498.7 -128.6 498.7 -130.3 L 498.7 -130.3 L 498.7 -130.3 Q 498.7 -132.1 498.2 -133.2 L 498.2 -133.2 L 498.2 -133.2 Q 497.7 -134.4 496.3 -134.4 L 496.3 -134.4 L 496.3 -134.4 Q 494.8 -134.4 493.9 -133.5 L 493.9 -133.5 L 493.9 -133.5 Q 492.9 -132.6 492.1 -130.9 Z M 560.4 -103 L 560.4 -103 L 560.4 -103 Q 552.7 -103 552.7 -109 L 552.7 -109 L 552.7 -109 Q 552.7 -111.7 553.8 -116.7 L 553.8 -116.7 L 553.8 -116.7 Q 554.9 -121.8 555.3 -123.9 L 555.3 -123.9 L 555.3 -123.9 Q 556.2 -128.6 556.2 -130 L 556.2 -130 L 556.2 -130 Q 556.2 -133.3 553.8 -133.3 L 553.8 -133.3 L 553.8 -133.3 Q 552.2 -133.3 550.6 -131.1 L 550.6 -131.1 L 550.6 -131.1 Q 549.1 -128.9 548.4 -124.5 L 548.4 -124.5 L 544.4 -104.3 L 532 -103 L 535.4 -120.4 L 535.4 -120.4 Q 536 -123.3 536.5 -126.6 L 536.5 -126.6 L 536.5 -126.6 Q 537 -129.8 537 -130.4 L 537 -130.4 L 537 -130.4 Q 537 -133.3 534.8 -133.3 L 534.8 -133.3 L 534.8 -133.3 Q 533.4 -133.3 531.8 -131.1 L 531.8 -131.1 L 531.8 -131.1 Q 530.2 -128.9 529.3 -124.5 L 529.3 -124.5 L 525.4 -104.3 L 512.8 -103 L 519.5 -136.9 L 529.9 -138.2 L 528.8 -131.8 L 528.8 -131.8 Q 530.5 -135.2 533.5 -136.7 L 533.5 -136.7 L 533.5 -136.7 Q 536.6 -138.2 541.4 -138.2 L 541.4 -138.2 L 541.4 -138.2 Q 544.2 -138.2 546 -136.9 L 546 -136.9 L 546 -136.9 Q 547.8 -135.5 548.3 -133.4 L 548.3 -133.4 L 548.3 -133.4 Q 549.4 -135.6 552.2 -136.9 L 552.2 -136.9 L 552.2 -136.9 Q 555 -138.2 558.4 -138.2 L 558.4 -138.2 L 558.4 -138.2 Q 561.8 -138.2 563.5 -137.5 L 563.5 -137.5 L 563.5 -137.5 Q 565.2 -136.8 566.3 -135.5 L 566.3 -135.5 L 566.3 -135.5 Q 568 -133.3 568 -129.2 L 568 -129.2 L 568 -129.2 Q 568 -125.2 566.3 -116.8 L 566.3 -116.8 L 566.3 -116.8 Q 565.4 -112.7 565.4 -111.2 L 565.4 -111.2 L 565.4 -111.2 Q 565.4 -109.7 566.2 -108.8 L 566.2 -108.8 L 566.2 -108.8 Q 567.1 -107.9 568.4 -107.8 L 568.4 -107.8 L 568.4 -107.8 Q 567.7 -105.6 565.5 -104.3 L 565.5 -104.3 L 565.5 -104.3 Q 563.3 -103 560.4 -103 Z M 587.7 -113.8 L 587.7 -113.8 L 587.7 -113.8 Q 587.7 -116.3 588.3 -119.5 L 588.3 -119.5 L 593.5 -146.5 L 607.7 -146.5 L 602.5 -119.3 L 602.5 -119.3 Q 602 -116.3 602 -114.1 L 602 -114.1 L 602 -114.1 Q 602 -111.8 602.9 -110.7 L 602.9 -110.7 L 602.9 -110.7 Q 603.8 -109.6 605.5 -109.6 L 605.5 -109.6 L 605.5 -109.6 Q 607.3 -109.6 608.4 -110 L 608.4 -110 L 608.4 -110 Q 609.5 -110.4 610.4 -111.5 L 610.4 -111.5 L 610.4 -111.5 Q 612.1 -113.7 613.2 -119.3 L 613.2 -119.3 L 618.4 -146.5 L 628 -146.5 L 622.9 -119.3 L 622.9 -119.3 Q 621.1 -110.3 616.2 -106.6 L 616.2 -106.6 L 616.2 -106.6 Q 611.4 -103 601.9 -103 L 601.9 -103 L 601.9 -103 Q 594.8 -103 591 -106.1 L 591 -106.1 L 591 -106.1 Q 587.7 -108.8 587.7 -113.8 Z M 656.4 -103 L 656.4 -103 L 656.4 -103 Q 648.6 -103 648.6 -109 L 648.6 -109 L 648.6 -109 Q 648.7 -110.7 649.2 -113.5 L 649.2 -113.5 L 650.4 -119.4 L 650.4 -119.4 Q 652.1 -127.7 652.1 -129.6 L 652.1 -129.6 L 652.1 -129.6 Q 652.1 -133.3 649.9 -133.3 L 649.9 -133.3 L 649.9 -133.3 Q 646.3 -133.3 644.3 -123.8 L 644.3 -123.8 L 640.6 -104.3 L 627.7 -103 L 634.4 -137 L 644.9 -138.2 L 643.8 -131.9 L 643.8 -131.9 Q 646.8 -138.2 656 -138.2 L 656 -138.2 L 656 -138.2 Q 660.5 -138.2 662.4 -136.3 L 662.4 -136.3 L 662.4 -136.3 Q 664.3 -134.4 664.3 -130.2 L 664.3 -130.2 L 664.3 -130.2 Q 664.3 -126.2 662.3 -117 L 662.3 -117 L 662.3 -117 Q 661.3 -112.8 661.3 -111.2 L 661.3 -111.2 L 661.3 -111.2 Q 661.3 -109.7 662.2 -108.8 L 662.2 -108.8 L 662.2 -108.8 Q 663 -107.9 664.3 -107.8 L 664.3 -107.8 L 664.3 -107.8 Q 663.7 -105.6 661.5 -104.3 L 661.5 -104.3 L 661.5 -104.3 Q 659.3 -103 656.4 -103 Z M 688.6 -126.8 L 688.6 -126.8 L 688.6 -126.8 Q 689.5 -129.1 689.5 -131.2 L 689.5 -131.2 L 689.5 -131.2 Q 689.5 -135 686.4 -135 L 686.4 -135 L 686.4 -135 Q 684.8 -135 683.5 -133.5 L 683.5 -133.5 L 683.5 -133.5 Q 682.2 -132.1 682.2 -130.3 L 682.2 -130.3 L 682.2 -130.3 Q 682.2 -129 683.2 -128 L 683.2 -128 L 683.2 -128 Q 684.7 -126.6 688.4 -124.3 L 688.4 -124.3 L 688.4 -124.3 Q 692.2 -122 693.6 -120.1 L 693.6 -120.1 L 693.6 -120.1 Q 695.1 -118.2 695.1 -115.6 L 695.1 -115.6 L 695.1 -115.6 Q 695.1 -113 693.8 -110.6 L 693.8 -110.6 L 693.8 -110.6 Q 692.6 -108.3 690.4 -106.6 L 690.4 -106.6 L 690.4 -106.6 Q 685.5 -103 677.9 -103 L 677.9 -103 L 677.9 -103 Q 673.7 -103 670.5 -105.2 L 670.5 -105.2 L 670.5 -105.2 Q 667.3 -107.3 667.3 -109.8 L 667.3 -109.8 L 667.3 -109.8 Q 667.3 -112.3 669.1 -113.8 L 669.1 -113.8 L 669.1 -113.8 Q 671 -115.2 673.6 -115.2 L 673.6 -115.2 L 673.6 -115.2 Q 676.3 -115.2 678 -114.2 L 678 -114.2 L 678 -114.2 Q 677.2 -112.1 677.2 -110.7 L 677.2 -110.7 L 677.2 -110.7 Q 677.2 -106.5 680.8 -106.5 L 680.8 -106.5 L 680.8 -106.5 Q 682.3 -106.5 683.3 -107.4 L 683.3 -107.4 L 683.3 -107.4 Q 684.3 -108.4 684.3 -110.1 L 684.3 -110.1 L 684.3 -110.1 Q 684.3 -113.3 678.8 -116.8 L 678.8 -116.8 L 678.8 -116.8 Q 674.4 -119.7 673.3 -120.9 L 673.3 -120.9 L 673.3 -120.9 Q 671.6 -122.9 671.6 -125.5 L 671.6 -125.5 L 671.6 -125.5 Q 671.6 -128 672.8 -130.5 L 672.8 -130.5 L 672.8 -130.5 Q 674 -132.9 676.3 -134.6 L 676.3 -134.6 L 676.3 -134.6 Q 680.9 -138.2 689.1 -138.2 L 689.1 -138.2 L 689.1 -138.2 Q 693.2 -138.2 695.7 -136.6 L 695.7 -136.6 L 695.7 -136.6 Q 698.2 -134.9 698.2 -132.1 L 698.2 -132.1 L 698.2 -132.1 Q 698.2 -129.3 696.5 -127.7 L 696.5 -127.7 L 696.5 -127.7 Q 694.8 -126.1 691.7 -126.1 L 691.7 -126.1 L 691.7 -126.1 Q 689.6 -126.1 688.6 -126.8 Z M 730.4 -108.7 L 730.4 -108.7 L 730.4 -108.7 Q 727.7 -106 724 -104.5 L 724 -104.5 L 724 -104.5 Q 720.3 -103 716.7 -103 L 716.7 -103 L 716.7 -103 Q 713 -103 711.7 -103.7 L 711.7 -103.7 L 709.7 -92.8 L 696.8 -91.5 L 705.6 -136.9 L 716 -138 L 715.2 -133.6 L 715.2 -133.6 Q 717.9 -138.2 723.4 -138.2 L 723.4 -138.2 L 723.4 -138.2 Q 729.7 -138.2 733 -134.1 L 733 -134.1 L 733 -134.1 Q 736 -130.5 736 -124.9 L 736 -124.9 L 736 -124.9 Q 736 -119.3 734.5 -115.4 L 734.5 -115.4 L 734.5 -115.4 Q 733 -111.4 730.4 -108.7 Z M 715.9 -126.6 L 712.5 -107.9 L 712.5 -107.9 Q 713.8 -106.7 715.5 -106.7 L 715.5 -106.7 L 715.5 -106.7 Q 717.2 -106.7 718.1 -107.4 L 718.1 -107.4 L 718.1 -107.4 Q 719.1 -108 719.8 -109.3 L 719.8 -109.3 L 719.8 -109.3 Q 721.7 -112.7 723.3 -123.2 L 723.3 -123.2 L 723.3 -123.2 Q 723.7 -126.3 723.7 -129.3 L 723.7 -129.3 L 723.7 -129.3 Q 723.7 -132.3 723 -133.3 L 723 -133.3 L 723 -133.3 Q 722.4 -134.2 721.1 -134.2 L 721.1 -134.2 L 721.1 -134.2 Q 717.2 -134.2 715.9 -126.6 L 715.9 -126.6 Z M 755.1 -107.8 L 755.1 -107.8 L 755.1 -107.8 Q 753.1 -103 746.8 -103 L 746.8 -103 L 746.8 -103 Q 743.6 -103 741.5 -105.3 L 741.5 -105.3 L 741.5 -105.3 Q 739.9 -107.1 739.9 -109.2 L 739.9 -109.2 L 739.9 -109.2 Q 739.9 -114 742.1 -124.5 L 742.1 -124.5 L 746.8 -149.1 L 759.8 -150.4 L 753.6 -118 L 753.6 -118 Q 752.5 -113.3 752.5 -111.6 L 752.5 -111.6 L 752.5 -111.6 Q 752.5 -107.9 755.1 -107.8 Z M 763.3 -106.2 L 763.3 -106.2 L 763.3 -106.2 Q 761.8 -107.9 761.2 -110.5 L 761.2 -110.5 L 761.2 -110.5 Q 760.5 -113.1 760.5 -117.4 L 760.5 -117.4 L 760.5 -117.4 Q 760.5 -121.7 762 -125.6 L 762 -125.6 L 762 -125.6 Q 763.4 -129.5 766.1 -132.3 L 766.1 -132.3 L 766.1 -132.3 Q 771.6 -138.2 780.7 -138.2 L 780.7 -138.2 L 780.7 -138.2 Q 784 -138.2 786.4 -137.1 L 786.4 -137.1 L 797.3 -138.2 L 792.6 -113.3 L 792.6 -113.3 Q 792.4 -112.5 792.4 -111.1 L 792.4 -111.1 L 792.4 -111.1 Q 792.4 -109.7 793.2 -108.8 L 793.2 -108.8 L 793.2 -108.8 Q 794.1 -107.9 795.4 -107.8 L 795.4 -107.8 L 795.4 -107.8 Q 794.7 -105.6 792.4 -104.3 L 792.4 -104.3 L 792.4 -104.3 Q 790.1 -103 787.4 -103 L 787.4 -103 L 787.4 -103 Q 784.8 -103 783.1 -104 L 783.1 -104 L 783.1 -104 Q 781.3 -105 780.8 -106.7 L 780.8 -106.7 L 780.8 -106.7 Q 779.8 -105.1 777.6 -104 L 777.6 -104 L 777.6 -104 Q 775.4 -103 772.5 -103 L 772.5 -103 L 772.5 -103 Q 769.6 -103 767.2 -103.8 L 767.2 -103.8 L 767.2 -103.8 Q 764.9 -104.6 763.3 -106.2 Z M 776.9 -132.2 L 776.9 -132.2 L 776.9 -132.2 Q 776.1 -131.1 775.5 -129.1 L 775.5 -129.1 L 775.5 -129.1 Q 774.8 -127.2 773.8 -121.9 L 773.8 -121.9 L 773.8 -121.9 Q 772.7 -116.7 772.7 -113 L 772.7 -113 L 772.7 -113 Q 772.7 -109.3 773.3 -108.2 L 773.3 -108.2 L 773.3 -108.2 Q 773.9 -107.1 774.9 -107.1 L 774.9 -107.1 L 774.9 -107.1 Q 776.9 -107.1 778.5 -109.1 L 778.5 -109.1 L 778.5 -109.1 Q 780 -111 780.5 -114.5 L 780.5 -114.5 L 783.9 -133.2 L 783.9 -133.2 Q 782.6 -134.4 781 -134.4 L 781 -134.4 L 781 -134.4 Q 779.4 -134.4 778.5 -133.9 L 778.5 -133.9 L 778.5 -133.9 Q 777.6 -133.4 776.9 -132.2 Z M 819.9 -126.8 L 819.9 -126.8 L 819.9 -126.8 Q 820.8 -129.1 820.8 -131.2 L 820.8 -131.2 L 820.8 -131.2 Q 820.8 -135 817.7 -135 L 817.7 -135 L 817.7 -135 Q 816.1 -135 814.8 -133.5 L 814.8 -133.5 L 814.8 -133.5 Q 813.5 -132.1 813.5 -130.3 L 813.5 -130.3 L 813.5 -130.3 Q 813.5 -129 814.5 -128 L 814.5 -128 L 814.5 -128 Q 816 -126.6 819.8 -124.3 L 819.8 -124.3 L 819.8 -124.3 Q 823.5 -122 825 -120.1 L 825 -120.1 L 825 -120.1 Q 826.4 -118.2 826.4 -115.6 L 826.4 -115.6 L 826.4 -115.6 Q 826.4 -113 825.2 -110.6 L 825.2 -110.6 L 825.2 -110.6 Q 823.9 -108.3 821.7 -106.6 L 821.7 -106.6 L 821.7 -106.6 Q 816.9 -103 809.2 -103 L 809.2 -103 L 809.2 -103 Q 805 -103 801.8 -105.2 L 801.8 -105.2 L 801.8 -105.2 Q 798.6 -107.3 798.6 -109.8 L 798.6 -109.8 L 798.6 -109.8 Q 798.6 -112.3 800.5 -113.8 L 800.5 -113.8 L 800.5 -113.8 Q 802.3 -115.2 805 -115.2 L 805 -115.2 L 805 -115.2 Q 807.7 -115.2 809.3 -114.2 L 809.3 -114.2 L 809.3 -114.2 Q 808.5 -112.1 808.5 -110.7 L 808.5 -110.7 L 808.5 -110.7 Q 808.5 -106.5 812.1 -106.5 L 812.1 -106.5 L 812.1 -106.5 Q 813.6 -106.5 814.6 -107.4 L 814.6 -107.4 L 814.6 -107.4 Q 815.7 -108.4 815.7 -110.1 L 815.7 -110.1 L 815.7 -110.1 Q 815.7 -113.3 810.2 -116.8 L 810.2 -116.8 L 810.2 -116.8 Q 805.7 -119.7 804.7 -120.9 L 804.7 -120.9 L 804.7 -120.9 Q 802.9 -122.9 802.9 -125.5 L 802.9 -125.5 L 802.9 -125.5 Q 802.9 -128 804.1 -130.5 L 804.1 -130.5 L 804.1 -130.5 Q 805.4 -132.9 807.6 -134.6 L 807.6 -134.6 L 807.6 -134.6 Q 812.3 -138.2 820.4 -138.2 L 820.4 -138.2 L 820.4 -138.2 Q 824.6 -138.2 827 -136.6 L 827 -136.6 L 827 -136.6 Q 829.5 -134.9 829.5 -132.1 L 829.5 -132.1 L 829.5 -132.1 Q 829.5 -129.3 827.8 -127.7 L 827.8 -127.7 L 827.8 -127.7 Q 826.1 -126.1 823 -126.1 L 823 -126.1 L 823 -126.1 Q 820.9 -126.1 819.9 -126.8 Z M 864 -111.4 L 864 -111.4 L 864 -111.4 Q 864 -108.6 866.9 -107.8 L 866.9 -107.8 L 866.9 -107.8 Q 866.2 -105.4 863.5 -104.1 L 863.5 -104.1 L 863.5 -104.1 Q 861.2 -103 858.6 -103 L 858.6 -103 L 858.6 -103 Q 856.1 -103 854.8 -103.7 L 854.8 -103.7 L 854.8 -103.7 Q 853.5 -104.4 852.8 -105.4 L 852.8 -105.4 L 852.8 -105.4 Q 851.6 -107.1 851.6 -110.3 L 851.6 -110.3 L 851.6 -110.3 Q 851.6 -112.1 852.7 -117.2 L 852.7 -117.2 L 853.5 -122.1 L 853.5 -122.1 Q 854.6 -127.7 854.6 -129.7 L 854.6 -129.7 L 854.6 -129.7 Q 854.6 -133.3 852.7 -133.3 L 852.7 -133.3 L 852.7 -133.3 Q 850.2 -133.3 848.6 -129.6 L 848.6 -129.6 L 848.6 -129.6 Q 847.9 -128.2 847.5 -126.1 L 847.5 -126.1 L 843.1 -104.3 L 830.3 -103 L 839.3 -149.1 L 852.1 -150.4 L 851.6 -147.8 L 851.6 -147.8 Q 849.8 -138 848.3 -134.6 L 848.3 -134.6 L 848.3 -134.6 Q 851.9 -138.2 858.5 -138.2 L 858.5 -138.2 L 858.5 -138.2 Q 865.5 -138.2 866.7 -133.6 L 866.7 -133.6 L 866.7 -133.6 Q 867.2 -132.1 867.2 -130.9 L 867.2 -130.9 L 867.2 -130.9 Q 867.2 -129.6 867.1 -128.6 L 867.1 -128.6 L 867.1 -128.6 Q 867 -127.6 866.7 -125.8 L 866.7 -125.8 L 865.8 -121.2 L 864.4 -114 L 864.4 -114 Q 864 -112.5 864 -111.4 Z M 913.4 -103 L 913.4 -103 L 913.4 -103 Q 905.2 -103 904.4 -114.7 L 904.4 -114.7 L 893.4 -114.7 L 893.4 -114.7 Q 892.1 -111.7 891.3 -109.2 L 891.3 -109.2 L 889.6 -104.3 L 880.6 -104.3 L 900.8 -146.5 L 914.5 -146.5 L 917.2 -115.4 L 917.2 -115.4 Q 917.9 -108.7 920.4 -106.7 L 920.4 -106.7 L 920.4 -106.7 Q 918.6 -103 913.4 -103 Z M 898.9 -127.5 L 895.4 -119.3 L 904.2 -119.3 L 903.5 -135.8 L 903.5 -137.5 L 898.9 -127.5 Z M 949.2 -147 L 949.2 -147 L 949.2 -147 Q 964.8 -147 964.8 -135.9 L 964.8 -135.9 L 964.8 -135.9 Q 964.8 -129.8 960.9 -126.2 L 960.9 -126.2 L 960.9 -126.2 Q 957.1 -122.5 950.4 -122.5 L 950.4 -122.5 L 950.4 -122.5 Q 947.3 -122.5 944.8 -124.3 L 944.8 -124.3 L 944.8 -124.3 Q 943.7 -125.1 942.9 -126.1 L 942.9 -126.1 L 942.9 -126.1 Q 947.6 -126.1 950 -129 L 950 -129 L 950 -129 Q 952.5 -131.8 952.5 -137.4 L 952.5 -137.4 L 952.5 -137.4 Q 952.5 -143 947 -143 L 947 -143 L 945.5 -143 L 945.5 -143 Q 945.1 -143 944.8 -142.9 L 944.8 -142.9 L 937.4 -104.3 L 923.5 -104.3 L 931.4 -146.2 L 931.4 -146.2 Q 938.2 -146.9 942.2 -146.9 L 942.2 -146.9 L 942.2 -146.9 Q 946.2 -147 949.2 -147 Z M 978.4 -104.3 L 964.5 -104.3 L 972.6 -146.5 L 986.7 -146.5 L 978.4 -104.3 Z" fill="url(#editing-shiny-gradient2)"></path></g></g><style>text {
  font-size: 64px;
  font-family: Arial Black;
  dominant-baseline: central;
  text-anchor: middle;
}</style></svg>